<svg width="24" height="24" viewBox="0 0 24 24" fill="none" xmlns="http://www.w3.org/2000/svg">
<rect width="24" height="24" rx="4" fill="#828282"/>
<path d="M17.4444 5C17.857 5 18.2527 5.16389 18.5444 5.45561C18.8361 5.74733 19 6.143 19 6.55556V17.4444C19 17.857 18.8361 18.2527 18.5444 18.5444C18.2527 18.8361 17.857 19 17.4444 19H6.55556C6.143 19 5.74733 18.8361 5.45561 18.5444C5.16389 18.2527 5 17.857 5 17.4444V6.55556C5 6.143 5.16389 5.74733 5.45561 5.45561C5.74733 5.16389 6.143 5 6.55556 5H17.4444ZM17.0556 17.0556V12.9333C17.0556 12.2609 16.7884 11.6159 16.3129 11.1404C15.8374 10.6649 15.1925 10.3978 14.52 10.3978C13.8589 10.3978 13.0889 10.8022 12.7156 11.4089V10.5456H10.5456V17.0556H12.7156V13.2211C12.7156 12.6222 13.1978 12.1322 13.7967 12.1322C14.0855 12.1322 14.3624 12.2469 14.5666 12.4512C14.7708 12.6554 14.8856 12.9323 14.8856 13.2211V17.0556H17.0556ZM8.01778 9.32444C8.36433 9.32444 8.69668 9.18678 8.94173 8.94173C9.18678 8.69668 9.32444 8.36433 9.32444 8.01778C9.32444 7.29444 8.74111 6.70333 8.01778 6.70333C7.66917 6.70333 7.33483 6.84182 7.08833 7.08833C6.84182 7.33483 6.70333 7.66917 6.70333 8.01778C6.70333 8.74111 7.29444 9.32444 8.01778 9.32444ZM9.09889 17.0556V10.5456H6.94444V17.0556H9.09889Z" fill="#F0F4FD"/>
</svg>
