<svg width="52" height="49" viewBox="0 0 52 49" fill="none" xmlns="http://www.w3.org/2000/svg">
<path d="M27.5 7L25.5 15.5L20.5 7L15 9L18 21.5L9.50002 19L8.50002 24L15 26L5.00002 34L11 42L22.5 34V42H29.5V34L37.5 43.5L43 39L40.5 34H50L51.5 26L40.5 24L46.5 18L40.5 10.5L34 15.5V7H27.5Z" fill="white"/>
<path d="M26.061 14.1737C26.5697 12.1603 29.4303 12.1603 29.9391 14.1737L30.8942 17.9536C31.1996 19.1621 32.524 19.7999 33.6592 19.2851L37.21 17.6752C39.1013 16.8176 40.8848 19.0541 39.6279 20.7072L37.2682 23.8107C36.5138 24.8029 36.8409 26.236 37.9511 26.8026L41.4237 28.575C43.2734 29.519 42.6368 32.3078 40.5608 32.3558L36.663 32.4459C35.4169 32.4747 34.5004 33.624 34.7496 34.8452L35.5291 38.6653C35.9443 40.7 33.367 41.9412 32.0351 40.3479L29.5344 37.3567C28.735 36.4004 27.265 36.4004 26.4656 37.3567L23.965 40.3479C22.633 41.9412 20.0557 40.7 20.4709 38.6653L21.2504 34.8452C21.4996 33.624 20.5831 32.4747 19.337 32.4459L15.4393 32.3558C13.3632 32.3078 12.7266 29.519 14.5763 28.575L18.049 26.8026C19.1592 26.236 19.4863 24.8029 18.7318 23.8107L16.3721 20.7072C15.1152 19.0541 16.8987 16.8176 18.79 17.6752L22.3409 19.2851C23.4761 19.7999 24.8004 19.1621 25.1058 17.9536L26.061 14.1737Z" fill="#8EDEC1"/>
<path fill-rule="evenodd" clip-rule="evenodd" d="M24.084 3.82522C22.3014 3.87745 21.9171 4.18014 21.4364 5.67835C21.062 6.89061 21.0274 6.91543 20.461 6.43277C16.84 3.19906 6.48383 8.34818 8.84479 12.2007C10.0883 14.2126 10.3965 15.1692 10.559 15.4974C5.57654 15.4694 4.19202 15.1303 3.34554 20.5058C2.64328 24.9655 3.87464 24.9173 9.48638 26.1945C8.86726 26.8234 6.37881 29.6096 5.03973 30.7304C3.66615 31.8762 3.67928 32.1809 5.17751 34.3237C9.54152 40.6104 12.1485 41.9289 15.3509 39.4669C16.6713 38.4642 16.9374 38.7181 16.6323 40.8492C16.2828 43.4577 19.2117 44.6755 27.1244 45.1346C32.0948 45.433 31.7353 44.8012 31.7845 41.964L34.7145 43.7571C37.6995 45.5892 39.0631 44.8959 46.6598 37.6475C47.1271 37.2066 46.1208 36.0191 45.1656 35.8687C44.8071 35.8123 43.9449 35.071 43.2504 34.2352L41.9624 32.7007C43.0259 32.7471 44.7946 32.7835 46.235 32.7682C46.97 32.7629 47.5706 32.2521 47.742 31.5525C48.7056 27.3761 49.1087 25.5932 49.104 25.6229C49.2084 25.1551 49.044 24.6447 48.6976 24.3179C48.2963 23.952 47.6105 23.4505 46.3389 22.9779C44.3141 22.2354 44.2516 22.4373 47.0007 20.3279C49.9661 18.0101 49.9982 18.1968 46.211 12.909C42.9532 8.34016 40.0439 6.6108 37.8866 7.87528L36.8404 8.49747L36.7773 7.73087C36.6087 5.88827 29.3723 3.65913 24.084 3.82522ZM31.4757 11.2848C30.7536 17.618 31.7746 18.3236 36.2152 14.6038C40.8285 10.7599 40.2035 10.8431 42.4652 13.772C44.8827 16.8767 45.0372 16.4773 40.5542 19.4943C35.4942 22.8745 35.6579 23.7778 41.3634 24.0709C45.553 24.2766 44.9609 25.1217 43.7384 30.1655C36.2004 29.4628 33.6928 29.0679 37.1964 32.4648C39.9271 35.1345 41.0957 36.6502 40.6631 37.0663C40.4514 37.245 36.1415 41.1064 36.1415 41.1064C35.7197 40.6768 35.0497 40.2686 32.969 37.5499C29.9167 33.6187 28.6436 33.9329 27.9863 38.8839L27.5225 42.4128C21.302 42.2807 21.4506 42.6975 21.9872 37.1523C22.184 35.1252 23.0202 31.5642 18.6492 32.5103C16.6865 32.9276 14.0649 34.4216 12.8352 36.0138C12.2963 36.7159 12.0164 36.5507 10.3085 34.7685C8.4148 32.8055 8.28069 33.2687 11.426 30.5859C12.4499 29.7181 13.4971 28.7025 14.16 27.9897C16.7521 25.1291 13.7244 23.9561 9.90315 23.3544L8.17154 23.0817C8.17154 23.0817 8.7223 19.7784 9.22352 18.3441C9.52205 18.3911 11.428 18.7214 13.2445 19.0378C18.1312 19.8678 18.2991 19.7732 16.4919 17.0671C14.7808 14.5276 13.8489 12.8676 13.2627 11.9278C13.7411 11.6097 11.5767 13.1151 17.8333 8.74304C18.1058 9.14918 19.5284 11.1892 20.8635 13.3971C22.5372 16.1727 25.0997 15.6381 25.3602 13.9841L25.6392 12.212C26.6643 5.89623 26.3257 6.29693 29.9839 6.96378L31.9198 7.29889L31.4757 11.2848Z" fill="black"/>
</svg>
