<svg width="57" height="59" viewBox="0 0 57 59" fill="none" xmlns="http://www.w3.org/2000/svg">
<path fill-rule="evenodd" clip-rule="evenodd" d="M24.1865 7.44629C24.2005 11.3884 22.883 18.5192 33.0184 20.2428C26.7267 21.1668 24.3223 26.1152 24.1877 32.4625C24.0334 27.6713 24.6792 22.139 14.3574 20.6226C24.264 19.8256 24.1266 11.4975 24.1865 7.44629Z" fill="white" stroke="black" stroke-width="2.01429" stroke-miterlimit="1.5" stroke-linecap="round" stroke-linejoin="round"/>
<rect x="24.0938" y="17.5" width="4.41369" height="4.41369" transform="rotate(44.5071 24.0938 17.5)" fill="#FFC061"/>
<path fill-rule="evenodd" clip-rule="evenodd" d="M34.0226 26.6777C34.0366 30.6199 31.3976 37.9393 41.533 39.6628C35.2413 40.5869 34.1584 45.3466 34.0238 51.6939C33.8695 46.9025 33.5539 41.3282 26.3945 39.7293C33.3341 38.8866 33.2171 32.0573 34.0226 26.6777Z" fill="white" stroke="black" stroke-width="2.01429" stroke-miterlimit="1.5" stroke-linecap="round" stroke-linejoin="round"/>
<rect x="34.5137" y="36.5" width="5.01247" height="5.01247" transform="rotate(44.5071 34.5137 36.5)" fill="#FFC061"/>
<path d="M13.4355 6.2998C15.0715 8.2256 16.3685 10.4595 18.0473 12.3437" stroke="black" stroke-width="2.01429" stroke-miterlimit="1.5" stroke-linecap="round" stroke-linejoin="round"/>
<path d="M29.3137 13.7689C30.5383 12.7419 31.6962 11.5727 32.6884 10.3105" stroke="black" stroke-width="2.01429" stroke-miterlimit="1.5" stroke-linecap="round" stroke-linejoin="round"/>
<path d="M18.4673 27.0371C16.8212 28.5896 15.2925 30.318 13.8037 32.027" stroke="black" stroke-width="2.01429" stroke-miterlimit="1.5" stroke-linecap="round" stroke-linejoin="round"/>
<path d="M28.7021 30.5967C28.8818 30.8763 29.0986 31.1311 29.2944 31.3993" stroke="black" stroke-width="2.01429" stroke-miterlimit="1.5" stroke-linecap="round" stroke-linejoin="round"/>
<path d="M26.6631 46.5432C27.0547 46.1463 27.4603 45.7638 27.846 45.3606" stroke="black" stroke-width="2.01429" stroke-miterlimit="1.5" stroke-linecap="round" stroke-linejoin="round"/>
<path d="M38.1846 33.631C39.9179 32.0349 41.4255 30.2813 42.8849 28.4277" stroke="black" stroke-width="2.01429" stroke-miterlimit="1.5" stroke-linecap="round" stroke-linejoin="round"/>
<path d="M38.6074 46.6816C40.6509 47.9754 42.073 50.6392 43.4869 52.5852" stroke="black" stroke-width="2.01429" stroke-miterlimit="1.5" stroke-linecap="round" stroke-linejoin="round"/>
</svg>
