<svg width="39" height="41" viewBox="0 0 39 41" fill="none" xmlns="http://www.w3.org/2000/svg">
<path d="M4.99984 15.4997C2.99984 17.4997 8.49984 29.6664 11.4998 35.4997C21.8997 39.8995 26.8332 29.3331 28 23.5C31 20.8332 37.2 14.4996 38 10.4994C38.8 6.4991 32.6667 10.1663 29.5 12.5C31 10.9998 33.9 7.39946 33.5 4.99983C33.1 2.6002 27.3333 7.66634 24.5 10.4994C25.8333 8.66619 28 4.99983 26 4.99983C24 4.99983 19.5 10.9998 17.5 13.9998C18.5 10.3332 19.9 3.39983 17.5 4.99983C15.1 6.59983 12.4999 18.9997 11.4998 24.9997C10.1665 20.9997 6.99984 13.4997 4.99984 15.4997Z" fill="white"/>
<path d="M13.6876 39.1581L9.99983 28.5001L13.6876 31.0001L15.4998 20L18.4998 23.5L25.4693 24.0569L17.5431 39.8748L13.6876 39.1581Z" fill="#FFC061"/>
<path fill-rule="evenodd" clip-rule="evenodd" d="M18.1147 0.53879C14.0473 3.38591 10.0188 23.9355 10.0188 23.9549L8.48867 21.8244C5.81587 18.1251 4.20831 16.1493 3.00748 15.394C0.857615 14.0188 0.838247 15.9171 0.954456 17.4859C1.26435 21.7663 7.30722 38.4229 9.90255 37.0478C10.503 36.7379 10.3287 36.1181 8.66299 32.3801C6.91985 28.4677 4.30515 21.3206 4.30515 20.4297C4.30515 20.236 6.2807 23.1027 7.63648 25.3107C10.0575 29.2037 11.9168 28.0416 11.9749 26.6664C12.0524 24.5941 13.0983 18.6093 13.9892 15.1424C14.3185 13.8254 14.8802 11.9466 15.2094 10.9589C15.4031 10.3778 15.9842 10.1841 15.9067 10.5715C15.4225 13.0894 15.1901 14.4258 15.0157 15.4523C14.5509 18.28 16.7395 17.6407 16.9332 16.3624C17.1269 15.1422 20.4969 10.2229 23.0535 7.76312C23.9638 6.89155 24.4287 7.27872 22.7824 9.48669C20.4195 12.6631 19.2961 14.7163 18.5601 15.9171C17.0688 18.3188 19.0056 18.3379 20.7681 16.1687C22.2207 14.3868 27.0627 9.50625 28.7284 8.20858C29.3869 7.68564 29.6 8.16985 29.2514 8.57658C28.6509 9.31257 27.1015 10.6681 25.6876 12.2951C23.4796 14.8517 22.5112 16.6918 21.7752 17.5828C19.8191 19.9651 22.1239 19.6552 24.6224 17.4472C27.0628 15.2586 28.1474 14.3868 30.5878 12.6824C33.0088 10.9974 35.9721 9.2351 36.1077 9.37067C36.5338 9.77741 26.9272 20.2943 25.6101 20.856C25.1647 21.0497 24.9323 21.3015 24.8548 21.6695C24.0219 25.6399 22.3369 29.6685 19.9159 33.4453C16.5652 38.6747 18.1147 39.3913 21.6978 35.5177C24.1963 32.8255 26.8497 27.2279 27.3726 23.6255C27.5082 22.7539 27.7019 22.4827 30.1229 19.9455C37.4828 12.237 39.9813 8.67342 38.6643 7.97617C37.386 7.29828 35.2942 7.99553 30.6265 10.7652C29.0383 11.7142 29.077 11.6174 31.5949 8.73152C36.8243 2.72739 33.4542 2.95962 30.6265 5.03201C28.4573 6.6202 28.3992 6.65913 26.4623 8.0149C29.3676 3.83138 30.3941 2.39813 29.2901 1.97203C28.3992 1.64278 27.5663 1.75879 26.8497 2.32047C24.9323 3.79245 21.5622 6.79451 19.974 8.42144C18.9862 9.42859 18.1921 10.2229 18.1921 10.1841C18.1921 10.1454 18.6182 8.34416 19.1605 6.17493C20.5744 0.713103 20.2452 -0.95254 18.1147 0.53879Z" fill="black"/>
</svg>
