<svg width="36" height="36" viewBox="0 0 36 36" fill="none" xmlns="http://www.w3.org/2000/svg">
<rect width="36" height="36" rx="8" fill="#222222"/>
<path fill-rule="evenodd" clip-rule="evenodd" d="M13.5035 6.18964C13.0349 6.5358 13.3668 7.51657 14.1087 7.99734C14.7333 8.40119 17.4078 8.53581 19.36 8.2858C24.7089 7.57426 27.6371 9.01658 27.3443 12.1897C26.9343 16.8435 26.8562 20.132 27.1491 21.7089C27.4809 23.5359 27.4419 23.4012 26.8172 22.9397C26.2121 22.4974 24.826 21.5935 24.0451 21.1128C23.4009 20.7282 22.2882 20.1705 22.0734 20.882C21.722 22.0551 20.6679 23.8628 19.7308 25.0936C17.603 27.882 13.5035 28.5167 9.98957 27.9205C8.50593 27.6705 8.46689 27.1705 8.52545 26.0743C8.72067 22.1512 8.99393 11.6897 9.46245 9.47812C9.69671 8.36273 9.97003 8.17042 10.8485 7.92042C12.3907 7.49734 11.3366 6.76657 9.52107 6.97811C8.25217 7.13196 7.52987 7.59349 7.08087 9.22812C6.39761 11.7858 6.4757 16.4397 6.00718 25.959C5.89005 28.1897 7.21752 28.959 9.13064 29.1513C10.2629 29.2667 11.9808 29.3051 14.87 29.3436C18.462 29.382 20.2579 29.4397 21.4682 29.2667C22.8348 29.0743 23.44 28.5936 25.0603 27.5359C30.175 24.1513 29.9797 24.4589 29.9992 19.9974C30.0383 9.76658 28.5937 7.15119 22.6982 6.88196C20.9803 6.80503 19.3209 6.61272 18.6962 6.43964C17.0564 5.99733 13.972 5.84349 13.5035 6.18964ZM16.9783 11.6512C15.5532 11.7666 15.0652 12.8051 16.2756 13.132C17.2712 13.4012 22.2687 13.4589 23.928 13.2858C24.9431 13.1704 24.5331 12.4589 23.7132 12.1127C22.5029 11.5935 20.0236 11.4012 16.9783 11.6512ZM14.5186 15.5743C11.1609 15.7281 12.0394 16.632 13.523 16.9205C16.5293 17.4974 24.5136 17.5743 24.5136 16.8051C24.5136 15.7474 20.6875 15.2858 14.5186 15.5743ZM14.5381 22.0166C15.9241 21.9782 18.6963 21.7474 19.2038 21.5935C20.0823 21.3243 18.8719 20.4012 17.3493 20.1897C15.2995 19.9012 14.4405 19.8243 13.9524 19.8628C11.3756 19.9974 12.5078 22.0743 14.5381 22.0166ZM27.1295 24.1705C26.8953 24.3436 24.6503 26.5743 21.9563 27.6897C20.9412 28.1128 20.4141 28.0551 21.0778 27.209C21.6049 26.2666 23.4205 22.2859 23.8695 22.2859C24.1232 22.3051 27.1295 24.1705 27.1295 24.1705Z" fill="white"/>
</svg>
