<svg width="36" height="36" viewBox="0 0 36 36" fill="none" xmlns="http://www.w3.org/2000/svg">
<rect width="36" height="36" rx="8" fill="#3B4A6C"/>
<path d="M24.1273 23.311C24.3925 23.4246 24.6829 23.3615 24.8975 23.1721C25.0869 23.0079 25.9834 22.1872 26.3243 21.9852C26.7536 21.7327 27.0818 17.4271 27.0818 17.4398C27.1071 17.1872 27.0187 16.9347 26.842 16.7579C25.1122 15.0029 25.0237 14.7756 22.9657 14.5231C22.3975 14.4473 22.0187 14.4726 21.943 14.5988C21.6273 15.1039 23.0541 16.0256 24.1778 16.0256C24.6071 16.0256 25.9328 17.4271 25.8066 17.7428C25.7182 17.9574 25.7561 19.3337 25.7434 20.8488L25.1753 21.1393C24.8596 21.3034 24.4682 21.5938 24.3041 21.8084C24.0137 22.1746 23.9884 22.1746 23.496 21.8842C23.0288 21.6064 22.2207 21.6191 22.2207 21.9095C22.2207 22.162 23.2182 22.9574 23.8748 23.2226L24.1273 23.311Z" fill="white"/>
<path d="M29.9994 12.5782C30.012 12.1867 29.8352 11.808 29.5322 11.5681C28.964 11.1261 28.3453 11.0756 28.0423 11.4292C27.0827 12.5908 23.2191 12.1741 19.3428 10.4822C16.6787 9.32057 13.5978 8.8029 10.9463 9.06805C5.18874 9.63623 5.78218 9.77512 6.33773 23.8787L6.95641 24.1943C7.56247 24.51 7.61295 24.51 9.33012 24.1312C12.07 23.5251 16.5398 23.5756 19.1408 24.2196C21.4766 24.8004 21.9565 24.6994 20.9969 23.7903C19.2292 22.1236 12.1837 21.164 9.33012 22.212C8.74931 22.4267 8.20643 22.5908 8.11805 22.5908C7.81502 22.5908 8.38318 18.7903 8.09277 10.9241C8.1054 10.9241 14.065 9.24482 18.4968 11.5049C20.8958 12.7297 23.8251 13.5251 26.0221 13.5377H28.1559C28.1559 23.8029 28.2443 24.8761 27.8782 24.8761C27.714 24.8761 26.7165 24.7625 25.6559 24.6236C23.5979 24.3585 23.3074 24.409 23.7241 25.0024C24.1281 25.5706 26.6661 26.1893 28.257 26.265C29.7216 26.3408 29.5448 26.1262 29.6079 25.2297C29.6711 24.1312 29.608 25.0024 29.9994 12.5782Z" fill="white"/>
<path d="M10.7323 13.5753C11.1237 13.4743 11.793 12.9061 11.9066 12.5778C11.9571 12.4137 12.4243 12.4263 13.8637 12.5904C17.4243 13.0071 15.7829 11.5298 15.101 11.3404C14.3056 11.1132 13.0682 11.2016 11.6541 11.4162C11.3889 11.4541 11.0733 11.6561 10.9596 11.8707C10.846 12.0854 10.2652 12.4389 9.86113 12.8556C8.76265 13.9541 8.64899 19.4465 9.70959 19.6107C10.5808 19.7369 10.8712 19.8506 11.3132 20.2672C11.8561 20.7597 11.9192 20.7091 15.5177 20.7091C16.0101 20.7091 16.2753 19.497 13.1818 19.3708C11.9066 19.3203 11.6288 19.2445 11.1743 18.8657C10.8839 18.6258 10.5682 18.4238 10.4798 18.4238C10.0884 18.4238 10.3409 13.6637 10.7323 13.5753Z" fill="white"/>
<path d="M18.1773 20.954C17.9788 20.898 17.8205 20.8223 17.7023 20.7268C17.5905 20.6331 17.5034 20.5256 17.4408 20.4043C17.3801 20.2766 17.3275 20.1443 17.2832 20.0074L16.6736 18.1252C16.6394 18.0258 16.5985 17.9382 16.5507 17.8625C16.5029 17.7869 16.4442 17.7254 16.3746 17.6781C16.3114 17.6327 16.2318 17.5964 16.1358 17.5693L15.3388 17.3447C15.134 17.2869 14.9916 17.1915 14.9116 17.0584C14.8317 16.9253 14.8187 16.7627 14.8729 16.5706C14.927 16.3786 15.023 16.2467 15.1607 16.1749C15.2984 16.1032 15.4696 16.0962 15.6745 16.154L16.9132 16.5032C17.2461 16.597 17.5161 16.6075 17.7232 16.5346C17.9386 16.4571 18.1267 16.3166 18.2877 16.1133L18.438 16.3526L15.7301 15.5891C15.5572 15.5404 15.4345 15.4609 15.362 15.3506C15.2976 15.2357 15.288 15.0983 15.3331 14.9382C15.3764 14.7846 15.4546 14.6788 15.5677 14.6208C15.689 14.5583 15.8361 14.5514 16.0089 14.6001L18.7168 15.3635L18.4418 15.4933C18.4509 15.2402 18.3872 15.0253 18.2504 14.8485C18.1137 14.6717 17.8692 14.5337 17.5171 14.4345L16.1632 14.0528C15.9904 14.004 15.8677 13.9245 15.7951 13.8142C15.7307 13.6993 15.7202 13.5651 15.7635 13.4114C15.8086 13.2514 15.8877 13.1424 16.0008 13.0844C16.1221 13.0219 16.2692 13.015 16.442 13.0637L20.9168 14.3252C21.0832 14.3721 21.2018 14.454 21.2726 14.5706C21.3451 14.6809 21.3589 14.8161 21.3137 14.9761C21.2704 15.1298 21.1881 15.2379 21.0668 15.3004C20.9473 15.3566 20.8044 15.3612 20.6379 15.3143L19.6969 15.049L19.8594 14.8771C19.9969 15.0265 20.083 15.1993 20.1175 15.3956C20.1602 15.5873 20.1613 15.7915 20.121 16.0081L19.8979 15.6965L20.4836 15.8616C20.6501 15.9085 20.7687 15.9903 20.8394 16.107C20.912 16.2173 20.9266 16.3493 20.8833 16.5029C20.8382 16.663 20.755 16.7743 20.6337 16.8368C20.5142 16.893 20.3712 16.8976 20.2048 16.8507L19.6479 16.6936L20.0238 16.4265C19.8973 16.8262 19.6947 17.1526 19.416 17.4057C19.1391 17.6524 18.8044 17.8103 18.4118 17.8793C18.0274 17.9437 17.6015 17.91 17.1342 17.7783L17.1667 17.663L17.57 17.7767C17.8645 17.8597 18.1166 17.9827 18.3264 18.1455C18.5362 18.3083 18.702 18.5658 18.8238 18.918L19.1728 19.9597C19.2549 20.1832 19.2634 20.386 19.1983 20.568C19.1349 20.7437 19.0125 20.8715 18.831 20.9517C18.6576 21.0272 18.4398 21.028 18.1773 20.954Z" fill="white"/>
</svg>
