<svg width="52" height="53" viewBox="0 0 52 53" fill="none" xmlns="http://www.w3.org/2000/svg">
<path d="M43.5 34.0002C35.1002 15.2002 18.6668 18.8335 11.5 23.0002C4.33331 27.1668 6.50004 28.5 6.50004 28.5C18.1 47.7 36 40.1668 43.5 34.0002Z" fill="white"/>
<circle cx="28.5" cy="29" r="9.5" fill="#F29662"/>
<path d="M44.8057 25.3558C43.4211 25.946 43.2405 25.8863 41.857 23.9802C41.1652 23.0272 40.0522 21.8347 39.3739 21.3218L38.1712 20.4001L39.057 19.6802C40.8992 18.2225 39.4345 17.0963 37.1352 18.1731L35.8425 18.7702C34.3664 18.1054 31.7965 16.9199 30.185 16.5225C28.7326 16.1599 28.8228 16.1898 28.8246 16.1668C28.8228 16.1898 28.8177 16.2587 29.0398 14.5185C29.1407 13.7864 28.6353 13.1246 27.9261 13.0255C26.4405 12.7992 25.7447 13.1403 25.9304 14.6797L26.0636 15.6836C26.0636 15.6836 21.3825 15.8432 20.2688 15.8989C18.0874 16.0137 17.93 15.9558 17.9951 15.0822C18.1185 13.4271 13.8053 12.9901 14.8897 15.498C15.1457 16.095 15.2919 16.6144 15.2408 16.6799C15.1914 16.7225 14.379 17.078 13.4729 17.4497C12.5669 17.8213 11.0679 18.7035 10.1856 19.3775L8.54438 20.6189L7.059 19.7685C4.79652 18.4904 4.11253 19.2947 5.48479 21.6622C6.20025 22.9175 6.20023 22.9175 5.53745 23.7465C3.85922 25.7943 4.66186 28.05 8.63084 32.4835C12.7275 37.0651 22.1925 41.261 24.3167 39.4314C24.8849 38.9421 23.6146 37.0675 22.6721 36.9973C16.0517 36.5038 7.09284 29.5488 8.33759 25.8738C9.8492 21.4096 19.7161 16.1814 29.9055 18.7207C35.6937 20.146 39.023 23.2374 41.3021 29.2554C41.7077 30.3258 42.0742 31.3008 42.1363 31.3979C42.616 32.4045 34.9681 35.4636 28.7215 36.7778C26.6081 37.2213 26.3432 37.3634 26.2918 38.053C26.1068 40.5356 31.5942 40.413 35.6686 37.8504C40.4208 34.876 46.1082 33.312 44.7451 29.5813C44.4585 28.7741 44.3668 28.1431 44.5558 28.0879C45.736 27.7597 47.5526 26.6469 47.7035 26.1728C48.0139 25.1095 46.4553 24.6235 44.8057 25.3558Z" fill="black"/>
<path d="M33.6143 27.573C33.7372 24.9932 32.7874 22.5416 31.4417 21.6785C30.9778 21.3896 30.2659 21.6371 30.4639 22.3915C31.5492 26.7487 26.8272 26.8359 25.4935 25.8119C22.3265 23.3337 24.0891 21.0842 26.2307 20.5735C27.4075 20.2914 27.029 19.4772 24.244 19.3159C19.6857 19.0686 16.3864 22.706 16.1575 26.0869C15.8498 30.5252 18.9783 35.3814 24.979 35.5051C30.4459 35.6583 33.3489 32.6847 33.6143 27.573Z" fill="black"/>
</svg>
