<svg width="60" height="60" viewBox="0 0 60 60" fill="none" xmlns="http://www.w3.org/2000/svg">
<path d="M22 11.5H18V16L11.5 21.5L15.5 30.5V33L6 42.5H11.5V48L20.5 37.5L27.5 42.5L35 39.5L43 54L44.5 48L50 51L43 34.5L51 27L44.5 19V13H38L31.5 4.5L22 11.5Z" fill="white"/>
<circle cx="32" cy="27.5" r="12" fill="#E597E5"/>
<path fill-rule="evenodd" clip-rule="evenodd" d="M30.4793 3.64243C30.0957 3.81355 28.5395 4.88135 27.0233 5.97507C23.1716 8.77751 22.7339 9.04968 22.1029 9.51442C16.1226 9.14128 14.6605 8.61239 15.1207 14.0432C15.1971 14.8876 15.1453 14.9675 13.1785 17.0177C8.49131 21.912 8.73661 21.4467 9.8394 23.2639C10.0716 23.6758 13.6725 30.1459 13.6725 30.1459C13.2298 32.1748 13.2718 32.3724 12.2877 33.1189C11.2588 33.8817 9.24532 35.7767 7.70954 37.4254C7.123 38.0666 6.44463 38.7617 6.20679 38.9706C5.15649 39.9239 2.12378 44.0187 1.53404 45.2595C-0.173805 48.8176 1.47659 49.1963 6.99093 46.4738L8.80549 45.5851C8.5199 52.8822 8.38476 53.7028 9.78155 53.86C10.1837 53.9053 13.2669 50.6949 15.2956 48.0944C17.5457 45.2403 22.1388 40.4211 22.3925 40.6425C23.9712 41.8489 24.7622 42.8166 27.5965 44.2929C27.9208 44.458 28.3042 44.4797 28.6384 44.3673C29.1749 44.1705 30.0268 43.8378 32.0062 42.8176C33.9856 41.7975 34.0302 41.7811 34.4105 42.2096C35.3028 43.2316 39.8691 52.1677 40.8718 54.8737C42.1862 58.4291 43.1096 59.1759 44.2822 56.5648C45.1151 54.687 46.0183 51.2312 46.5456 49.2118C46.5456 49.2118 51.2038 53.1436 51.6125 53.5111C52.43 54.246 53.1706 54.3294 54.2132 53.8252C56.1172 52.9037 50.1528 39.8241 46.0285 35.9096C45.1384 35.0593 44.7275 34.5202 44.8312 34.3604C44.9325 34.2218 46.621 32.7403 48.5684 31.0522C53.7394 26.6196 53.6937 27.4074 48.9796 21.4977C46.8009 18.7665 46.4422 17.9546 46.2782 17.5076C46.1962 17.284 46.4029 15.8286 46.3839 14.2835C46.3158 10.8898 46.5084 11.0829 42.8021 10.88C40.5022 10.7497 40.0814 10.6809 39.7338 10.3418C33.7377 4.58782 32.1055 2.90397 30.4793 3.64243ZM33.7713 7.3347C36.8809 10.3635 38.4524 11.6334 39.1883 11.7591C39.9878 11.8919 43.4283 12.172 44.3408 12.2533L44.1256 16.258C44.0896 16.7683 44.2488 17.2577 44.5233 17.6744C48.2576 22.9594 48.3161 23.2017 50.0754 26.4214C45.5607 30.7351 44.2103 32.6404 43.1672 33.5302C42.4796 34.1172 42.5572 34.1902 42.1559 38.5168C36.8996 38.3752 37.0386 38.2837 35.2854 39.0078C30.6542 40.9296 28.1889 42.838 28.1889 42.838L26.4198 41.6102C24.8903 40.538 21.3828 37.8072 20.5234 36.8747C20.4059 36.7758 19.9507 36.0602 18.9513 35.9905L14.9722 35.7355L15.3976 31.0044C15.5101 29.6241 14.8294 28.626 11.2509 22.9084C16.1231 16.942 15.2354 17.785 17.0641 15.2478C17.5236 14.5923 17.6983 12.4689 17.8722 10.9241C17.9032 10.649 18.141 10.44 18.4185 10.4498C22.8115 10.6443 23.2511 10.7366 25.3038 9.44611C27.9827 7.7332 30.7538 5.77349 30.9141 5.49152C31.1853 4.98628 31.7045 5.32333 33.7713 7.3347ZM36.6725 12.976C34.7388 11.6868 30.7278 10.7639 28.3614 11.0333C11.8862 12.8862 12.2494 36.8863 28.7829 38.7045C41.8879 40.1368 50.4358 22.8403 40.4396 15.1145C38.5061 13.6324 37.5592 14.6188 39.4173 16.1995C49.9621 25.1443 35.5172 43.0414 23.7779 35.5695C11.2772 27.6261 20.1179 9.44101 34.623 13.6668C36.3015 14.1772 37.7299 13.6737 36.6725 12.976ZM27.6397 15.731C23.5043 16.2942 20.0343 25.2258 22.0237 25.4497C22.4046 25.4926 22.6263 25.0461 22.7502 23.9457C23.0455 21.3215 26.5891 16.8771 28.737 16.4546C29.7886 16.2515 28.7711 15.5798 27.6397 15.731ZM30.6786 18.8162C29.9701 19.2079 28.4411 21.1788 26.8868 22.6111C26.6466 22.8413 26.6247 23.2245 26.876 23.4671C27.125 23.7309 28.0282 23.704 28.6567 23.2604C29.5655 22.6126 29.6101 22.5962 29.4471 23.0922C29.1685 23.8538 28.5184 26.2022 28.3596 27.0416C28.2128 27.7751 28.2129 27.7751 26.7899 27.8507C22.8878 28.0544 24.9992 30.0493 26.2992 30.4957C27.4745 30.9066 29.3181 31.0927 31.9099 31.1058C34.1583 31.1231 33.5977 28.4884 31.2909 28.2287C30.2539 28.112 30.2747 28.3072 31.2064 24.7904C32.4974 19.9853 32.578 19.4586 32.0494 19.0133C31.5069 18.5022 31.2952 18.4784 30.6786 18.8162ZM39.1699 24.6795C38.8674 27.3672 37.0901 30.2102 34.7784 31.7073C32.7209 33.0401 32.4822 33.8276 34.1756 33.8253C37.0261 33.8247 41.7081 25.9296 40.0765 23.8601C39.5647 23.2667 39.3009 23.5156 39.1699 24.6795ZM47.9289 42.4455C49.7469 45.7147 51.6365 49.8706 51.4714 50.1949C51.4195 50.2748 50.2306 49.6052 48.8114 48.6954C45.2751 46.4114 44.9456 46.4815 44.278 49.5566C43.1653 54.6818 43.1653 54.6818 41.36 50.7283C39.0953 45.7158 38.412 44.9317 35.52 41.113C36.6338 40.1669 36.806 39.779 40.6106 40.2502C43.5899 40.6284 43.4322 40.6964 44.0091 38.6183L44.4795 36.9139C45.1884 37.8509 45.7754 38.5385 47.9289 42.4455ZM13.0904 35.888C13.0343 37.339 13.9649 37.8295 17.3347 38.1659C21.0642 38.5429 21.083 38.5664 18.7538 40.7901C14.0484 45.2752 12.4572 47.7963 10.6094 50.5029C10.8024 43.8383 10.9789 43.7939 9.64085 43.6861C8.87659 43.6215 6.20091 44.7348 5.06651 45.2928C4.06623 45.8017 4.14242 45.1245 4.33344 44.7603C5.02213 43.402 12.763 34.6082 12.9908 34.8696C13.0447 34.9614 13.0981 35.4389 13.0904 35.888Z" fill="black"/>
</svg>
