<svg width="67" height="61" viewBox="0 0 67 61" fill="none" xmlns="http://www.w3.org/2000/svg">
<path d="M26.5001 13C31.8335 11.8333 44.2003 11 51.0001 17C54.0001 15.8333 59.9001 15.3 59.5001 22.5C59.0001 31.5 50.5001 43 42.0001 36L36.5001 40C35.3335 43.3333 34.4001 50.3 40.0001 51.5L45.0001 54L23.8378 54C23.3675 54.0319 22.9179 54.0298 22.5001 54L23.8378 54C28.621 53.6756 35.5494 49.8392 33.0001 36C30.5001 35.3333 24.9001 33.2 22.5001 30C19.3335 29.8333 13.3001 27.6 14.5001 20C15.7001 12.4 23.0001 12.1667 26.5001 13Z" fill="white"/>
<path d="M51.6022 14.5691L27.8201 8.94441C24.2507 18.1372 20.3516 37.3764 33.3096 40.7901C46.2675 44.2039 50.9038 24.7318 51.6022 14.5691Z" fill="#8EDEC1"/>
<path d="M13.5027 14.4965C13.4295 12.7004 12.7641 12.0356 12.159 13.1234C11.4099 14.4998 11.5535 16.224 12.4397 16.3632C13.268 16.4933 13.569 15.9596 13.5027 14.4965Z" fill="black"/>
<path d="M47.2209 54.0537C45.9839 53.2576 40.95 50.4955 39.0067 49.5469C36.6971 48.4163 36.7647 48.4892 36.8976 47.1405C37.7565 39.4106 37.6355 37.7938 36.757 38.4858C36.5325 38.6581 35.9409 42.5494 35.701 45.4584C35.4109 49.0651 35.5395 49.2513 39.4423 51.1717C41.9349 52.3933 42.886 52.9992 43.8433 53.5646C37.101 52.5055 23.671 50.4167 23.6837 50.3357C23.6901 50.2952 25.3552 49.7475 27.3733 49.0892C31.8651 47.6366 31.3525 48.2616 31.962 43.5015C32.819 36.6637 32.8319 36.7072 30.2168 35.1343C28.3759 34.0359 26.3545 32.328 25.3351 31.0266C24.5279 30.0075 24.4218 29.9286 24.1302 30.277C23.233 31.3397 19.9104 31.129 18.2845 29.9191C11.4561 24.7585 15.8052 11.0194 23.1737 14.501C24.2209 14.9975 24.5067 15.0632 24.8306 14.8858C26.4184 14.0769 37.0158 15.0982 43.1449 16.0402C43.6843 16.1249 48.5973 17.5192 45.3076 15.5914C42.0019 13.6403 30.9957 11.8284 25.6756 13.1509C25.2039 13.2635 25.5126 11.4237 26.0289 11.0275C27.0101 10.31 33.9914 10.2238 40.7536 11.6596C44.2117 12.3895 47.2662 13.6786 48.8755 14.4917C49.3863 14.7587 49.6888 15.3457 49.5934 15.9533L49.5075 16.5001C49.2594 18.0797 49.6273 19.5071 50.3016 19.613C50.6098 19.6614 50.9204 19.0669 50.8331 18.6174C50.665 17.8025 54.1231 16.2705 55.6064 16.5035C60.9425 17.3417 59.1673 26.3802 55.2676 31.1008C51.685 35.4354 49.6379 35.9023 44.749 33.4743C42.0764 32.1414 39.1447 31.4527 30.728 31.2512C28.327 31.206 28.8901 32.2698 31.9241 32.6841C39.2505 33.6689 43.2159 34.4371 42.7863 34.7846C42.2861 35.2041 40.1879 35.9951 38.824 36.2581C36.6644 36.6867 37.4791 38.537 39.3465 37.9588C40.7389 37.5135 43.1385 36.4378 44.2256 35.6747C45.1555 35.0323 45.239 35.0039 45.6022 35.3307C49.6873 39.1058 55.1244 36.5359 58.6993 29.1082C62.5398 21.1204 58.5961 12.9266 52.1318 15.5012L50.996 15.9454L50.8892 15.2438C50.7174 14.0755 50.0163 13.1353 48.9112 12.5052C43.5721 9.54987 31.0473 7.47874 25.1666 9.60545C24.3709 9.8955 23.7813 10.6329 23.6445 11.5037C23.6382 11.5442 23.3582 13.3264 23.3678 13.2657L22.8507 13.0392C15.5211 9.8127 9.39889 20.5133 14.1958 28.177C16.1197 31.2599 19.4955 32.7655 23.0865 32.1467L24.3252 31.9263L24.8559 32.6944C25.6408 33.8553 27.8646 35.6572 29.6346 36.5785L31.2247 37.3885C31.1503 39.2445 31.2109 38.9842 29.8451 46.925C28.459 47.3298 20.8546 49.4971 19.3335 49.7562C17.7128 50.0204 17.9938 51.2473 19.1433 51.4694C20.6941 51.7752 25.7156 52.6055 31.5525 53.5224C39.8552 54.8265 47.2914 56.2436 47.2721 56.2406C48.0653 56.469 48.6538 54.9843 47.2209 54.0537Z" fill="black"/>
<path d="M23.0691 37.4149C22.9906 36.4065 21.6779 36.4701 21.6761 37.4866C21.6711 38.5234 20.6106 39.8717 19.6529 39.0572C18.6727 38.2599 19.0037 36.2783 21.1644 36.597C21.3956 36.6333 21.739 36.5835 21.909 36.5064C22.743 36.0979 20.8993 35.2687 19.7891 35.5509C18.2457 35.9517 17.54 38.5593 18.7193 39.4708C20.4481 40.78 23.2197 39.4722 23.0691 37.4149Z" fill="black"/>
<path d="M23.7046 17.0331C21.2293 14.4446 17 15.3573 16.3938 20.2217C15.7942 25.1701 18.4313 28.7386 22.7938 28.8635C24.3667 28.9031 24.4116 28.8686 24.1813 27.1931C23.149 19.0624 24.653 18.0328 23.7046 17.0331ZM21.3826 27.4175C19.0151 26.1533 18.1069 24.0185 18.4905 20.6963C18.9347 16.9893 19.8448 15.9702 21.5382 17.253L22.3866 17.8843L22.1737 19.4903C21.9323 21.2785 21.9789 24.6267 22.2929 26.5229C22.5326 28.0132 22.5294 28.0334 21.3826 27.4175Z" fill="black"/>
<path d="M13.3211 8.7406C14.1313 9.6149 14.7627 8.9878 15.0713 7.02339C15.5039 4.26916 15.017 2.71932 14.0008 3.65952C13.4687 4.15697 12.9161 8.30344 13.3211 8.7406Z" fill="black"/>
<path d="M53.6099 12.1226C55.0543 12.1004 56.2458 10.1709 55.4418 9.1316C54.9498 8.49403 54.6801 8.5762 54.6941 9.36694C54.7146 10.2417 53.7245 11.3935 52.8762 10.7622C52.0086 10.1279 52.2465 8.1109 54.465 8.43863C54.9273 8.51126 55.1452 8.25495 54.8495 8.00099C53.9142 7.16929 52.0912 7.33948 51.3002 8.60557C50.4098 10.0013 51.3534 12.1624 53.6099 12.1226Z" fill="black"/>
<path d="M13.892 10.8843C13.7966 11.4919 15.9058 11.7609 18.3802 11.4648C20.6525 11.1992 18.6866 10.1433 16.2505 10.321C14.5719 10.4516 13.9365 10.6008 13.892 10.8843Z" fill="black"/>
<path d="M8.29191 9.46548C7.51517 9.50948 7.2849 10.0958 7.94976 10.387C8.74311 10.7399 12.2295 11.0385 12.624 10.7892C13.5027 10.2217 10.4873 9.31229 8.29191 9.46548Z" fill="black"/>
<path d="M50.6535 43.3876C51.4629 43.7638 51.7962 43.4011 52.0284 41.9228C52.3306 39.9988 52.2691 39.6364 51.6142 39.5335C51.2289 39.473 51.0363 39.5673 50.8891 39.8762C50.4061 41.0661 50.2488 43.1996 50.6535 43.3876Z" fill="black"/>
<path d="M48.0129 32.5547C52.0875 35.6434 59.1423 26.1683 56.7721 20.7742C56.1313 19.3247 54.5923 18.4397 53.2253 18.723C51.9995 18.9869 49.4698 21.0175 49.6055 21.6614C49.7446 22.4095 48.4766 26.8379 47.638 28.5323C46.4024 30.9944 46.4448 31.3538 48.0129 32.5547ZM48.4493 30.2783C49.1888 28.8381 50.2849 25.3788 50.5681 23.5764C51.0389 20.5792 54.3005 18.5391 55.584 20.4216C56.8062 22.1907 54.308 28.4179 51.4193 30.8486C49.7137 32.2823 47.6235 31.8917 48.4493 30.2783Z" fill="black"/>
<path d="M49.3188 47.992C48.3839 49.6713 48.7561 51.7011 49.9918 51.6255C50.9258 51.5854 51.3186 50.2153 50.9148 48.388C50.7241 47.4657 49.735 47.2274 49.3188 47.992Z" fill="black"/>
<path d="M55.8553 46.3412C55.0556 46.0288 52.1177 45.5051 51.6877 45.6036C50.1346 45.9407 53.3464 47.3582 55.362 47.2183C56.1805 47.1601 56.5072 46.5889 55.8553 46.3412Z" fill="black"/>
<path d="M46.1392 44.6078C45.7702 44.695 45.7355 45.1669 46.0793 45.3662C46.9435 45.8962 49.8038 46.0342 49.8769 45.5684C49.9662 45.1259 47.0826 44.3824 46.1392 44.6078Z" fill="black"/>
<path d="M43.0148 19.1325C42.7989 18.4968 38.2713 17.4121 34.6213 17.15C31.578 16.921 28.6315 17.0807 27.1522 17.4501C25.7532 17.8114 25.9247 18.7306 27.2728 18.6934C29.1569 18.6366 36.277 19.0494 38.319 19.3702C42.2327 19.9642 43.2663 19.919 43.0148 19.1325Z" fill="black"/>
</svg>
