<svg width="24" height="24" viewBox="0 0 24 24" fill="none" xmlns="http://www.w3.org/2000/svg">
<rect width="24" height="24" rx="4" fill="#828282"/>
<rect x="5" y="5" width="14" height="14" rx="2" fill="#F0F4FD"/>
<path d="M17 8.95602C16.6319 9.12333 16.2352 9.23327 15.8241 9.28585C16.2447 9.0325 16.5698 8.63098 16.7228 8.14818C16.326 8.38719 15.8862 8.55449 15.4226 8.6501C15.0449 8.23901 14.5143 8 13.912 8C12.7887 8 11.8709 8.91778 11.8709 10.0507C11.8709 10.2132 11.8901 10.3709 11.9235 10.5191C10.2218 10.4331 8.7065 9.61568 7.6979 8.37763C7.52103 8.67878 7.42065 9.0325 7.42065 9.40535C7.42065 10.1176 7.77916 10.7486 8.33365 11.1071C7.99426 11.1071 7.67878 11.0115 7.40153 10.8681C7.40153 10.8681 7.40153 10.8681 7.40153 10.8824C7.40153 11.8767 8.10899 12.7084 9.04589 12.8948C8.87381 12.9426 8.69216 12.9665 8.50574 12.9665C8.37667 12.9665 8.24761 12.9522 8.12333 12.9283C8.38145 13.7361 9.13193 14.3384 10.0354 14.3528C9.33748 14.9073 8.45315 15.2323 7.48757 15.2323C7.32505 15.2323 7.16252 15.2228 7 15.2036C7.90822 15.7868 8.98853 16.1262 10.1453 16.1262C13.912 16.1262 15.9818 13 15.9818 10.2897C15.9818 10.1989 15.9818 10.1128 15.9771 10.022C16.3786 9.73518 16.7228 9.37189 17 8.95602Z" fill="#828282"/>
</svg>
