<svg width="59" height="65" viewBox="0 0 59 65" fill="none" xmlns="http://www.w3.org/2000/svg">
<path d="M50.0001 32.5642C44.5001 28.5 35.3334 32.0642 32.5001 32.5642C30.0001 26.5 20.3334 22.3325 17.5001 22.9998L9.00006 37.5642C19.0001 37.5642 25.0001 42.5 28.0001 47.0639C34.5001 44.5 44.5001 46.4531 51.5001 50L50.0001 32.5642Z" fill="#9EB8F2"/>
<path d="M51.4471 25.0642C50.6457 24.8235 50.5986 24.8369 50.3312 25.5434C47.5132 32.7815 36.292 29.3005 36.5417 21.2648C36.5885 19.6036 36.2586 18.8732 35.3333 18.6981C34.9675 18.6289 34.7925 18.7294 34.7396 19.0089C33.7514 24.2329 24.5982 26.1977 21.9181 21.7494C20.9652 20.1886 20.0597 17.4343 20.1298 16.3565L20.2053 15.3687L18.9816 15.0036C16.8571 14.3345 16.8989 14.2311 20.7306 10.2353C27.3915 3.30108 32.0081 0.812056 33.8666 3.12314C34.4239 3.82977 34.3634 3.79607 33.6112 8.59708C33.5502 8.91955 33.2821 9.15829 32.9645 9.18729C31.5909 9.26145 30.2921 7.88013 31.5046 7.59735C32.0186 7.47193 32.0524 7.41151 32.1958 5.94674C32.4006 3.80331 32.2622 3.71032 30.5532 4.968C26.6155 7.87491 24.115 9.4282 22.8859 10.9771C22.5679 11.3622 22.5772 11.4308 22.8371 11.235C23.1401 11.0474 24.6103 11.1697 24.5697 11.3846C24.5615 11.4276 24.1587 11.9081 23.6831 12.4194C19.106 17.4098 24.0752 25.8983 29.4266 22.2346C33.4434 19.4985 31.7183 12.3584 26.8121 11.4303C25.4564 11.1739 25.2645 10.8926 26.2322 10.6081C28.9252 9.80373 32.8291 12.6131 34.0965 16.282L34.5131 17.4964L36.0112 17.8244C36.8679 18.0087 37.5256 18.0663 37.55 17.9373C37.6314 17.5074 38.8659 16.8725 39.4038 16.9742C40.0924 17.1045 40.0518 17.3195 39.2017 18.1607C35.5171 21.8503 39.9244 29.186 44.8987 27.6331C51.153 25.6766 48.6288 15.691 42.0615 16.475C40.1697 16.696 39.89 16.6431 40.211 16.1249C42.4237 12.5577 49.5502 16.7114 50.3712 22.0327C50.5884 23.4767 50.6233 23.5278 51.355 23.6662C51.979 23.7843 52.0988 23.7401 52.0306 23.3932C51.9852 23.1619 51.8551 21.022 51.7134 18.5903C51.2885 10.9391 49.9546 5.8548 48.9263 8.10965C48.2758 9.5453 47.6716 12.5039 48.0159 12.569C48.9197 12.74 48.6512 14.1588 47.6853 14.1987C45.6121 14.3187 45.9809 8.59902 48.1231 7.28969C50.517 5.82759 52.6284 8.09744 53.1289 12.7569C53.2483 13.8928 53.4971 15.8771 53.6741 17.1798C54.5913 23.8776 54.0276 25.7973 51.4471 25.0642Z" fill="black"/>
<path d="M4.61294 36.4475C7.47518 32.1026 7.98147 33.6933 6.41016 36.0735C5.52696 37.4236 5.37102 37.7734 5.6728 37.7189C10.6772 36.7468 19.5352 41.4792 24.276 47.7085L26.5389 50.6801C27.0804 48.5291 27.3816 47.292 27.6203 46.6232C27.8209 46.0364 28.8276 46.0483 28.8095 46.7366C28.7886 47.5582 28.498 48.9758 28.0702 51.2376L28.8839 50.6106C32.9305 47.4715 42.8711 48.2587 51.6104 52.4332C53.0699 53.1332 52.9925 53.5425 52.5136 47.8962C51.8818 40.213 51.9698 36.5482 51.8491 35.0528C51.7982 34.3738 44.7441 32.9056 41.9716 32.9835C39.3804 33.0511 33.3919 34.4841 32.4199 35.2373C32.1031 35.4898 31.6502 36.6982 30.7048 39.7992C29.2888 44.4399 29.285 44.1045 28.8411 44.199C28.0522 44.3398 29.2066 40.252 30.4783 35.0708L28.0256 32.5096C22.2198 26.4581 16.2897 25.8048 15.2873 25.4144L13.5066 27.2417C9.56078 31.27 8.78037 32.9074 8.56468 31.7956C8.4865 31.3792 13.8404 24.2928 14.5484 23.8689C15.8872 23.0735 25.5201 24.5388 30.8471 32.1731C32.2393 34.1768 32.0567 34.0753 33.0962 33.558C39.8059 30.2088 53.2551 31.0573 53.3024 34.8369C53.3373 37.1416 54.7715 46.6277 54.7887 52.6998C54.7849 54.2609 54.7331 54.6527 54.4054 55.0815C54.018 55.5884 53.8583 55.6028 52.9817 55.2585C52.6043 55.1201 52.5109 55.2586 52.066 56.7809C51.5831 58.3853 50.9628 59.2943 50.5788 58.9539C50.3083 58.7242 50.3215 59.1283 50.5822 59.6462C51.2011 60.8788 49.8804 62.8825 48.6629 62.5629C48.1299 62.4175 47.9579 62.4965 47.6612 62.9982C47.1695 63.8199 46.7419 63.8283 45.9509 63.0316C45.1207 62.2052 43.6103 60.8262 40.8793 59.6179C38.1483 58.4096 29.0387 57.378 28.0737 57.6194C27.4837 57.7755 27.1941 57.7653 27.1184 57.5725C27.0563 57.4269 26.353 57.1154 25.521 56.8911C22.7301 56.1177 18.3037 54.7449 16.3341 54.0153C13.4014 52.925 7.67577 52.0204 5.6662 52.3319C3.42794 52.6671 2.92113 51.7903 4.61747 50.527C5.21722 50.0827 5.25121 50.0222 4.8412 50.0562C1.63827 50.2758 1.27505 49.1139 3.67479 46.2657C4.74466 44.9955 4.73252 45.0601 3.58526 44.8431C2.22153 44.5851 2.38414 44.0804 4.44237 41.9708C6.30425 40.0696 6.30837 40.048 4.46663 40.302C2.25816 40.5982 2.28576 39.9787 4.61294 36.4475ZM42.4916 56.6654C45.066 57.3978 47.25 59.1274 47.4718 59.2586C47.8194 59.4359 48.1024 59.244 48.0568 58.6553C48.0354 58.2942 48.0046 57.8645 48.0156 57.6881C48.0543 56.5352 40.9456 54.0525 37.3721 53.9789C33.8677 53.8961 33.325 54.0389 30.2071 54.52C35.251 55.1172 39.7481 55.8787 42.4916 56.6654ZM28.3208 52.7575C39.8134 51.741 44.1197 52.4441 49.4495 56.1521C50.1595 56.6657 50.7817 57.0511 50.8115 57.0121C50.8671 56.9557 51.2251 55.774 51.6089 54.5748C46.5892 52.3089 42.6099 50.3512 37.3317 50.0444C35.7581 49.9475 33.5333 50.3299 31.7738 50.9788C28.7583 52.104 27.3154 52.8574 28.3208 52.7575ZM22.504 48.779C17.4818 42.4964 13.5583 40.1254 8.51517 40.3539C7.99693 40.3674 5.56247 42.4505 5.73818 42.7068C5.77333 42.7581 6.24017 42.7795 6.78413 42.7485C10.9991 42.6311 13.2283 43.4098 18.2174 46.7855C19.5279 47.6805 20.9035 48.5878 21.2646 48.8123C22.7483 49.74 26.1108 53.2989 22.504 48.779ZM6.23421 47.1961C8.94717 47.1961 11.9397 47.8515 14.5274 48.988C16.4725 49.8468 22.423 52.2889 22.6504 52.1534C22.7749 52.0877 19.9944 49.9553 18.6124 48.846C15.8091 46.5977 12.1703 45.3292 7.63499 45.0068C6.66217 44.9343 6.51187 45.0174 5.49905 45.986C4.15721 47.2717 4.12609 47.1989 6.23421 47.1961Z" fill="black"/>
</svg>
