<svg width="36" height="36" viewBox="0 0 36 36" fill="none" xmlns="http://www.w3.org/2000/svg">
<rect width="36" height="36" rx="8" fill="white" fill-opacity="0.4"/>
<path fill-rule="evenodd" clip-rule="evenodd" d="M27.5443 7.76626C26.1651 8.69575 25.4818 9.24326 23.7804 10.7839C22.3237 12.0954 22.3496 12.0827 21.9371 11.6625C21.0864 10.7585 17.9668 9.94355 17.0774 10.4147C16.652 10.6311 16.7036 11.064 17.1548 11.064C18.3793 11.0768 19.5137 11.637 20.4805 12.4392C21.3441 13.1649 21.3441 13.1267 20.1196 14.3236C18.8047 15.5968 16.9356 17.6977 15.8915 19.0601L15.0923 20.1042L14.422 19.1239C12.8365 16.781 11.1221 15.6223 10.0651 16.1698C9.67836 16.3736 9.74282 16.5009 10.9029 17.7105C11.9213 18.7674 12.9783 20.2698 13.7259 21.734C14.3317 22.9182 15.8271 22.9182 16.8454 21.2121C17.5802 19.9769 19.475 17.6214 21.0347 16.0171L22.4269 14.5782L22.762 15.3168C25.7526 21.9251 18.4567 29.5773 12.3209 26.2669C6.05618 22.88 7.47411 12.019 14.306 11.0513C15.6466 10.8603 15.6723 10.4147 14.3446 10.2491C10.9158 9.79076 6.53313 13.8015 6.06908 17.7997C5.19253 25.4266 12.8107 30.3923 20.2613 27.069C24.7858 25.0572 26.8998 17.8251 24.1026 14.0053C23.8964 13.7252 23.7288 13.4578 23.7288 13.3941C23.7288 13.1267 26.0362 11.0895 28.4853 9.23052C31.2438 7.12963 29.813 6.23833 27.5443 7.76626Z" fill="#222222"/>
</svg>
