<svg width="36" height="36" viewBox="0 0 36 36" fill="none" xmlns="http://www.w3.org/2000/svg">
<rect width="36" height="36" rx="8" fill="white" fill-opacity="0.4"/>
<path fill-rule="evenodd" clip-rule="evenodd" d="M16.182 5.20369C12.8867 5.53739 12.3444 5.8989 11.6214 8.26266C8.11754 19.664 7.97849 26.8804 8.00632 26.4076C7.96452 27.0889 8.1314 27.7563 8.46515 28.3542C9.27158 29.7723 10.078 30.2868 12.0525 30.6483C16.6547 31.4965 21.0762 30.6483 23.3843 29.8141C25.4143 29.0772 24.8025 28.6323 25.3031 27.0611C26.7908 22.4866 29.2102 11.975 28.6957 8.31822C28.6123 7.73432 28.3759 7.69252 28.1257 7.48396C27.2357 6.76098 26.8604 5.75988 25.7064 5.42617C23.1757 4.71706 17.4055 5.07855 16.182 5.20369ZM24.0378 6.02406L24.8303 6.1631C25.1362 6.23262 25.3588 6.49678 25.3588 6.80267V7.78987C25.3588 12.1419 23.0507 22.0833 21.3126 25.1701C19.9917 27.5338 19.6441 27.6868 15.3477 27.7702C9.98066 27.8814 9.11857 27.4921 9.27158 25.1006C9.39665 23.015 10.6897 16.1324 11.6075 12.712C11.7743 12.1001 12.0802 10.8627 12.3026 9.95891C13.0118 7.09469 15.0001 5.59301 15.8065 7.28932C15.9873 7.67866 16.2237 7.88723 16.9049 7.98458C18.1008 8.13748 22.1607 7.78987 22.1469 7.78987C22.55 7.76204 22.8838 7.49792 23.0227 7.12247C23.2174 6.59412 23.5512 5.94063 24.0378 6.02406ZM22.425 6.41338C22.3137 6.66366 22.1329 6.92781 21.8965 6.98343C21.4794 7.08076 20.7148 7.12248 19.366 7.1642L16.8494 7.20591C16.7242 7.20591 16.5991 7.15028 16.5296 7.05295L16.1402 6.55243C16.029 6.24653 16.0568 6.2187 16.5851 6.14919C17.2248 6.05186 21.2988 5.94062 22.2998 5.98234C22.5223 5.98234 22.6335 5.91283 22.425 6.41338ZM23.9405 27.6033C23.8571 27.8675 23.5094 27.9092 23.3565 27.7007C23.1618 27.4365 22.9255 27.1028 22.7031 26.7413C22.564 26.5188 22.5362 26.2547 22.6335 26.0183C24.7331 20.4983 25.456 17.5228 26.7909 7.88723C26.8047 7.80374 26.8604 7.74818 26.9438 7.73432C27.0272 7.72035 27.0967 7.74818 27.1384 7.8177L27.5834 8.49906C27.7502 8.76318 27.8476 9.0691 27.8336 9.38888C27.7502 13.435 24.8164 24.9059 23.9405 27.6033ZM22.5779 29.1328C22.3971 29.2023 21.5072 29.4387 20.6869 29.6194C17.4334 30.3563 12.7615 30.1478 10.954 29.5499C10.8289 29.5082 9.45231 28.1318 10.0502 28.1734C10.3283 28.2013 11.5797 28.4237 12.1358 28.4932C15.0418 28.813 18.6013 28.674 20.5201 27.9787C21.5351 27.6033 21.4238 26.8664 21.688 27.1166C21.7158 27.1306 23.3843 28.813 22.5779 29.1328Z" fill="#222222"/>
</svg>
