<svg width="36" height="36" viewBox="0 0 36 36" fill="none" xmlns="http://www.w3.org/2000/svg">
<rect width="36" height="36" rx="8" fill="white" fill-opacity="0.4"/>
<path d="M18.6505 4.15334C24.3391 5.38796 26.4847 14.3354 22.01 18.0974C15.9542 23.1811 10.8162 18.5911 9.85634 16.6738C9.72922 16.4269 9.43277 16.0784 9.20693 15.9185C7.64008 14.7711 7.72479 11.9532 8.74106 9.44043C10.6326 4.71981 15.7285 3.52876 18.6505 4.15334ZM22.3347 9.01921C20.3161 5.86728 17.8599 4.69076 14.6274 5.32986C11.7477 5.91085 9.33396 8.64156 9.33396 11.3287C9.33396 11.7644 9.34806 11.7644 9.95506 11.7208C10.7173 11.6627 11.8043 12.113 11.9454 12.5488C12.0583 12.9264 12.1712 12.9264 12.8488 12.5778C14.0345 11.9532 14.8957 10.4136 15.192 8.39462C15.4602 6.579 16.1096 5.91084 16.9424 6.59352C18.4386 7.82815 23.0686 11.2415 23.1392 11.1689C23.2522 11.0817 22.6876 9.55663 22.3347 9.01921ZM21.8547 11.5611C20.3725 10.6169 17.9164 8.75775 17.4506 8.22033C17.1118 7.84268 16.9565 7.84267 16.9565 8.24937C16.9424 10.646 14.7968 12.9845 12.2418 13.3622L11.9596 13.4057C11.4231 13.4929 10.8726 13.3622 10.435 13.0426L10.2092 12.8828C10.0963 12.8102 9.95506 12.7812 9.82804 12.8247C9.70102 12.8683 9.5881 12.9555 9.54569 13.0862C9.27755 13.7543 9.48928 14.6403 10.0398 15.1778C13.2864 18.3588 14.7827 19.0995 17.5353 18.8817C20.669 18.6202 23.3228 15.7443 23.3228 12.5923C23.3087 12.5342 22.6593 12.0695 21.8547 11.5611Z" fill="#222222"/>
<path d="M9.21279 27.9624C10.3393 24.4062 12.1472 22.4793 14.9285 21.8276C15.6378 21.6576 17.0423 21.1192 20.9363 21.5301C24.566 21.9268 27.3612 25.9222 28.0009 27.5231C29.4055 30.966 25.4838 32.142 14.9563 31.9861C14.0385 31.7877 7.64135 32.9212 9.21279 27.9624ZM18.9198 22.2385C18.3357 22.1393 16.8893 21.9977 15.4569 22.7344C15.3874 22.7627 15.3457 22.8336 15.3318 22.9044C15.3179 22.9752 15.3456 23.0461 15.3874 23.1027C16.3748 24.1512 17.5986 24.3071 18.1131 24.3354C18.2661 24.3354 18.4192 24.2645 18.5026 24.1512C18.7112 23.882 19.0449 23.3294 19.1562 22.6068C19.184 22.4227 19.0728 22.2668 18.9198 22.2385ZM18.586 25.4547C18.7668 25.9646 20.8389 28.359 21.1171 28.2174C21.3951 28.0758 20.8111 25.4688 20.4078 25.0012C20.0045 24.5196 18.4052 24.9446 18.586 25.4547ZM22.8554 23.0886C22.3687 22.5219 21.2283 22.3235 20.5747 22.281C20.5191 22.281 20.4774 22.2951 20.4496 22.3377C20.4217 22.3802 20.4078 22.4227 20.4217 22.4793C20.8528 23.8112 22.758 24.222 22.8971 24.1937C23.0501 24.1653 23.2309 23.6978 22.8554 23.0886ZM24.4269 25.5113C24.7606 26.4181 24.9414 27.6649 24.9414 28.9824C24.9414 30.286 24.9553 30.3001 25.901 30.0167C26.9718 29.705 27.2361 29.0816 26.7076 28.1465L26.4017 27.5799L26.193 28.3307C25.7341 29.9601 25.2891 29.025 25.6368 27.1831C25.7758 26.4464 25.7063 26.2622 24.9136 25.3838C24.2461 24.6612 24.1209 24.6895 24.4269 25.5113ZM23.7454 27.9483C23.9401 27.8632 23.5646 25.908 23.2448 25.3413C22.9249 24.7746 21.729 24.4912 21.6177 24.8737C21.4926 25.2705 23.5507 28.0473 23.7454 27.9483ZM10.4644 29.8468C10.4922 30.1017 11.2571 30.5551 12.1472 30.8243C12.9677 31.0793 20.6442 31.0368 21.5204 30.7676L21.9236 30.6543L20.6025 29.1667C18.0853 26.3331 15.8881 24.5196 14.5113 24.1653C13.4405 23.882 13.496 23.9671 11.9803 25.6955C13.0649 26.163 12.9538 26.2056 13.7047 25.823C14.859 25.228 15.2484 25.5113 14.706 26.5456C14.4418 27.0556 14.4 27.0273 16.2357 27.8207C18.1549 28.6566 19.2257 29.2941 19.2257 29.62C19.2257 30.0593 18.8919 29.9884 17.4179 29.2517C14.0524 27.5515 13.357 27.7499 13.8021 26.8998C13.9967 26.5456 13.8021 26.5456 13.2041 26.914C12.4114 27.4098 12.175 27.169 11.3267 26.6306C10.9373 27.594 10.367 28.8266 10.4644 29.8468Z" fill="#222222"/>
</svg>
