<svg width="85" height="100" viewBox="0 0 85 100" fill="none" xmlns="http://www.w3.org/2000/svg">
<path d="M69.6157 26.8834C66.4888 19.2244 53.1286 14.6136 48.4916 14.2406C43.8547 13.8675 38.9939 14.9144 35.2159 18.2575C31.4379 21.6005 28.0047 29.6301 28.0047 29.6301C28.0047 29.6301 30.0063 30.6802 30.8242 30.0747C31.6421 29.4691 32.6337 23.1801 37.7085 20.7761C42.7833 18.372 46.0683 18.1555 48.5906 18.1951C51.1128 18.2347 60.8154 20.8431 64.8902 29.363C68.9651 37.8829 63.3034 46.2998 61.1556 48.4676C59.0077 50.6354 49.2162 50.8819 49.4585 51.6362C49.7007 52.3906 49.2353 53.0517 49.8328 53.8436C50.4304 54.6356 61.4247 53.6333 65.385 49.1345C69.3452 44.6357 72.7426 34.5425 69.6157 26.8834Z" fill="#9FF2ED"/>
<path fill-rule="evenodd" clip-rule="evenodd" d="M49.9524 8.15984C37.8682 6.08989 24.5279 10.1111 18.5892 25.0655C14.1867 36.2286 14.2438 36.339 25.9287 37.6365C35.789 38.7186 35.1257 39.0591 37.3708 32.041C39.2819 26.0673 42.0402 23.2197 47.3553 22.3412C59.1378 20.4465 62.0977 36.3135 60.7346 40.5745C59.2378 45.2533 55.0974 46.6455 43.5643 46.3175C34.132 46.0631 30.231 48.7294 27.0491 57.5201C26.1233 60.1253 25.1622 62.1201 24.762 62.3603C22.9554 63.5323 27.0122 66.4422 31.9638 67.5655C46.8321 70.8946 46.5825 70.953 47.5237 65.2674C48.1036 61.7231 48.599 61.3288 52.3685 61.3834C61.4658 61.5307 67.7234 58.2831 72.91 50.7323C86.3834 31.281 76.3799 12.7462 49.9524 8.15984ZM62.683 14.9955C71.6682 19.3896 76.5775 34.3607 71.9097 43.3207C67.5949 51.6109 61.0947 55.4719 50.4488 55.9801C45.2921 56.2186 43.131 57.9216 41.4589 63.0048L40.55 65.8457C35.2785 64.7116 34.9431 64.6043 31.431 64.0335C35.9601 51.8977 35.5232 50.3762 52.5258 49.9213C63.189 49.6486 67.8362 42.3399 64.5606 31.0689C59.3053 12.9939 30.3856 14.6099 29.9016 33.0132C29.8572 33.8738 29.7556 34.6244 29.6451 34.6811C29.4794 34.766 23.6453 34.2351 23.2264 34.1011C23.1845 34.0877 24.5351 28.8557 24.845 27.0207C27.449 11.2298 46.4486 7.13102 62.683 14.9955ZM27.1306 71.2692C18.4935 72.2822 15.2602 81.3784 21.7499 86.3558C34.6876 96.297 50.693 91.8853 45.4463 79.8454C43.9254 76.2276 32.0321 70.6728 27.1306 71.2692ZM37.0541 77.2069C40.2451 78.7801 42.3227 82.3918 41.5208 84.8983C40.0374 89.5353 27.9069 88.1877 25.0172 83.0727C23.6074 80.5493 25.7305 71.604 37.0541 77.2069Z" fill="#222222"/>
<path d="M40.1362 81.5814C39.363 79.6476 35.4966 77.7151 34.3367 77.3284C33.1768 76.9418 32.4035 77.3284 31.2436 78.1017C30.0837 78.875 28.5371 80.0342 28.5371 81.5814C28.5371 83.1286 28.5371 83.9019 30.0837 85.0612C31.6302 86.2204 33.5634 86.6071 35.4966 86.6071C37.4298 86.6071 39.363 86.2204 40.1362 85.4472C40.9095 84.6739 40.9095 83.5153 40.1362 81.5814Z" fill="#9FF2ED"/>
</svg>
