<svg width="36" height="36" viewBox="0 0 36 36" fill="none" xmlns="http://www.w3.org/2000/svg">
<rect width="36" height="36" rx="8" fill="black"/>
<path d="M6.21615 18.0244C7.25148 11.7034 11.6909 7.05982 15.644 8.16249C16.4754 8.39544 17.1342 8.93901 19.7853 11.6568C21.1657 13.0701 21.5893 13.4118 21.8246 13.3341C24.3972 12.3402 26.013 13.5826 25.9973 16.5645C25.9973 18.1486 25.9188 18.5679 25.4012 20.1676C25.26 20.5869 27.0483 22.2331 29.2915 24.5782C31.0955 26.2089 29.1974 26.7059 26.4836 25.8362C21.8089 24.3453 22.5305 24.4074 20.9148 25.3082C18.2637 26.7836 14.8125 27.3271 13.2438 26.5195C12.9301 26.3642 12.7576 26.0381 12.7889 25.6809C12.7889 25.6654 12.9301 24.1434 12.9301 24.1589C10.781 23.3047 8.19266 22.435 6.96909 21.5653C5.74551 20.6801 5.9181 19.8259 6.21615 18.0244ZM26.4992 24.3919C26.6718 24.3919 24.6168 22.1555 24.4756 22.0002C24.4443 22.1865 24.005 22.8854 23.3776 23.3047C23.3619 23.3824 26.2169 24.3919 26.4992 24.3919ZM10.6085 20.9907C11.4869 21.1926 14.2478 22.2797 15.2204 22.8233C15.9263 23.2115 15.9577 23.2581 15.8636 23.7551C15.5185 25.6498 15.4243 25.5411 17.0871 25.1218C20.852 24.1589 25.213 16.844 23.4874 14.3747C23.0011 13.6758 22.3265 14.5611 22.2795 15.9743C22.2324 17.4653 20.8991 19.9191 19.9579 20.5248C19.4088 20.882 19.1265 20.4471 19.2677 20.1676C21.0873 16.844 20.7893 15.9588 20.6638 15.4618C20.6638 15.4618 16.6636 11.455 16.3342 11.0978C15.1263 9.82425 14.0596 9.76213 12.8831 10.8803C10.7183 12.9614 9.05546 16.2694 8.63191 19.2979C8.53779 20.1054 9.19665 20.6801 10.6085 20.9907Z" fill="white"/>
<path d="M10.4985 18.6302C12.3025 19.5776 15.8949 12.9926 14.2321 11.7968C13.4791 11.2532 14.6399 10.5854 15.2674 11.2843C16.3184 12.4646 15.2987 18.9253 10.9691 19.6707C10.1848 19.8105 9.54164 19.6707 9.47889 19.1427C9.41614 18.6923 10.0122 18.3662 10.4985 18.6302Z" fill="white"/>
</svg>
