<svg width="55" height="55" viewBox="0 0 55 55" fill="none" xmlns="http://www.w3.org/2000/svg">
<circle cx="24.9999" cy="29" r="19" fill="#FFC061"/>
<circle cx="24.9999" cy="29" r="10" fill="white"/>
<path fill-rule="evenodd" clip-rule="evenodd" d="M25.4966 3.22585C24.5224 3.43069 24.5451 4.14315 25.5512 4.59564C26.7975 5.14516 26.7127 8.53243 25.4386 8.3184C23.8598 8.05317 18.0143 9.62227 15.8068 10.8954C15.2987 11.2068 15.1466 10.9263 14.2148 9.8626C15.9743 8.54244 17.2673 7.79603 15.0238 7.41913C13.4728 7.15857 8.6608 9.86493 8.44778 11.133C8.36904 11.6017 9.95696 11.9819 10.9959 11.7312C12.1825 11.4487 12.0578 11.5127 12.9897 12.9166L12.3199 13.3425C3.55923 18.872 -5.8064 42.0728 20.1583 49.9213C32.2981 53.6047 42.9932 48.2583 46.2123 36.894L46.6887 35.245L48.2167 35.3032C51.3237 35.4568 51.6075 31.2243 48.5887 30.2067C47.9702 29.9896 47.4533 29.676 47.4305 29.4737C46.6911 21.8378 43.8873 16.1513 41.3338 16.9412C40.5535 17.1785 40.6225 17.4453 41.7255 18.3393C46.0632 21.8458 45.4051 35.5963 40.5726 41.9842C29.7392 56.2927 5.64898 47.7955 6.85883 30.0843C8.02196 12.9889 24.6604 4.47433 37.8957 14.1811C39.6449 15.4671 41.9162 15.8486 43.5232 15.098L44.6959 14.5581L45.2403 15.3865C47.0579 18.1297 49.2284 16.5669 47.5034 13.7827C45.3998 10.368 41.5689 8.76056 42.6617 11.7502C43.4591 13.9534 41.7923 14.2121 38.9124 12.3677C37.7818 11.6391 36.0049 10.6887 34.9386 10.2546L33.0185 9.47831C33.1527 8.67897 33.4168 7.27756 33.3942 6.22505C33.3668 5.3701 33.3993 5.34718 34.3409 5.50537C35.4212 5.68686 36.026 5.30663 35.4817 4.81834C34.9462 4.44493 26.3554 3.03001 25.4966 3.22585ZM31.0243 8.97332L28.5317 8.55457L28.805 6.92798C29.0967 5.19129 29.1612 5.14545 31.0077 5.34228C31.7094 5.40347 31.6079 5.49975 31.0243 8.97332ZM27.4953 12.5189C26.6549 13.1146 26.8653 16.6082 27.7562 17.0696C28.8037 17.614 30.0103 14.8404 29.434 13.1848C29.2404 12.6418 27.948 12.198 27.4953 12.5189ZM20.9937 15.2816C21.1078 17.8236 23.2144 23.7615 24.0626 26.3416L23.3741 27.2181C22.5104 28.2918 22.3295 29.367 22.8463 30.0207C25.0102 32.7369 28.8575 38.3153 30.5556 39.9044C32.4568 41.6411 37.378 42.0144 34.7538 36.613C33.6149 34.239 31.0036 30.966 29.6845 28.6467C29.1402 27.6483 28.7432 27.298 28.1617 27.2003C27.2477 27.0467 26.7442 27.5008 27.321 27.9661C27.8008 28.3302 27.6571 29.6951 27.0749 30.4477C26.1326 31.6499 23.6358 29.7282 24.5 28.4843C24.7585 28.1311 25.1744 27.8607 25.4511 27.9072C26.199 28.0329 26.9937 27.0325 26.4677 26.604C26.2415 26.4242 25.8081 25.4443 25.4946 24.428C24.2227 20.3027 23.1163 17.2255 22.2953 15.5003C21.4425 13.4578 20.907 13.2546 20.9937 15.2816ZM37.8456 30.5846C36.7235 31.1615 37.5358 31.7514 40.0379 32.115C42.7614 32.516 44.0541 32.2795 43.3251 31.5336C42.7114 30.9486 38.5613 30.2231 37.8456 30.5846ZM9.06764 26.2602C7.91321 26.5199 8.67473 27.2431 10.6042 27.7939C12.589 28.3541 13.5955 28.2964 13.5911 27.6438C13.5547 26.844 10.6004 25.9508 9.06764 26.2602ZM23.0383 42.2698C22.428 44.2082 22.6536 45.4082 23.5955 45.5664C24.814 45.7711 25.1745 45.1515 24.9907 43.1932C24.7797 40.89 23.6164 40.3544 23.0383 42.2698Z" fill="black"/>
</svg>
