<svg width="107" height="105" viewBox="0 0 107 105" fill="none" xmlns="http://www.w3.org/2000/svg">
<circle cx="56" cy="57" r="29" fill="#FFC061"/>
<path fill-rule="evenodd" clip-rule="evenodd" d="M61.1121 0.22271C60.5564 0.419867 58.5325 2.19424 56.6275 4.12638C51.0713 9.72564 45.7134 11.7367 42.1813 9.60736C39.6016 8.06953 36.4665 5.23048 35.7918 3.85038C34.1647 0.419848 32.696 1.6028 31.5848 7.35979C29.402 18.5583 22.7348 23.8816 12.7734 22.5015C7.09814 21.7128 6.66151 21.9888 9.32054 25.0645C17.5754 34.6463 13.3687 50.616 1.26415 55.6633C-0.878943 56.5702 -0.561602 56.9645 4.28021 59.3698C12.0192 63.1947 16.4244 73.7228 14.0035 82.4372C13.2098 85.2368 13.2097 86.538 13.9241 87.0112C14.7178 87.5238 16.3052 87.445 17.0196 86.8141C18.8055 85.2762 26.267 84.9213 28.6482 86.262C31.5453 87.8787 37.2999 96.9479 37.2999 99.9053C37.2999 101.364 39.0064 103.967 40.2764 104.519C42.4989 105.465 42.5385 105.426 46.2294 100.536C54.9209 89.0616 61.6279 87.997 69.3669 96.7902C73.6928 101.68 75.7167 101.68 76.4311 96.7508C78.3361 83.5807 86.6308 75.4184 95.4413 78.0603C100.68 79.6375 100.799 79.0855 97.8225 69.1882C96.5922 65.2056 96.9097 60.9865 98.6163 57.8714C100.759 53.9677 104.133 49.0782 105.76 47.5404C107.943 45.4505 107.188 43.9916 103.934 43.9916C100.6 43.9916 95.5602 38.8655 93.8934 33.7788C92.7028 30.2694 93.9727 22.2254 96.473 17.0599C97.3858 15.1672 96.9096 13.9054 95.084 13.4717C94.0521 13.1956 92.5043 13.7871 92.5043 14.3785C92.5043 15.6009 80.241 16.5079 76.2327 15.601C69.8827 14.142 63.255 6.88659 64.1281 2.31255C64.3662 0.577564 62.9774 -0.487055 61.1121 0.22271ZM63.1359 9.52851C66.3506 16.3501 76.2725 19.6624 88.6945 18.1245L90.8773 17.8485L90.0836 19.6624C85.5592 30.1511 89.8452 41.5862 99.767 45.3322C101.989 46.1603 102.069 45.766 99.0527 49.3937C90.7978 59.4092 89.8454 63.865 94.2507 72.461C95.2429 74.3537 95.8779 75.8915 95.7192 75.8915C95.5605 75.8915 94.0523 75.655 92.3458 75.3395C87.7024 74.5115 85.3606 75.1423 81.1141 78.2574C75.1213 82.6737 72.5814 87.2478 72.5814 93.754V95.2524L70.0812 93.2414C60.9135 85.8283 50.6345 87.5238 43.0146 97.6971L41.8639 99.1955L40.1969 95.7256C35.8314 86.4986 29.4022 82.2795 21.2266 83.2652L18.1311 83.6201L18.3691 82.3977C20.155 72.5793 15.6702 62.406 7.69314 58.2263L5.31192 56.9645L8.68531 53.4945C17.6943 44.2281 19.5597 35.2772 14.202 26.7206L13.4082 25.4588L15.5515 25.6954C24.4017 26.6023 34.1646 19.2286 35.1171 10.8692L35.395 8.54273L37.2204 9.84393C44.5228 15.0094 51.6267 14.3786 58.5719 7.91183C61.1516 5.54595 61.3103 5.42764 61.6674 6.21626C61.8262 6.72887 62.501 8.18784 63.1359 9.52851ZM46.5469 21.0819C11.5429 30.4666 18.4483 85.8677 54.3254 83.3441C85.8765 81.1359 98.0607 36.3813 70.2401 24.1576C65.7554 22.186 64.803 24.4336 69.2479 27.3909C97.5447 46.1997 69.6446 94.4243 40.5144 77.0351C18.8056 64.1016 25.8302 33.1479 48.1343 24.5519C51.0315 23.4478 55.5954 22.5803 58.9688 22.7775C62.501 22.9746 63.6521 20.8453 59.2072 20.175C55.7544 19.623 49.8409 20.175 46.5469 21.0819Z" fill="black"/>
</svg>
