<svg width="149" height="151" viewBox="0 0 149 151" fill="none" xmlns="http://www.w3.org/2000/svg">
<g clip-path="url(#clip0_54_8490)">
<path d="M89.8332 48.4983C89.7213 47.8597 89.4848 47.2493 89.1373 46.7022C88.7898 46.1551 88.338 45.6821 87.8079 45.3101C87.2778 44.9381 86.6798 44.6746 86.0481 44.5346C85.4165 44.3946 84.7635 44.3808 84.1268 44.4941L28.902 54.245C27.6161 54.4721 26.4734 55.2019 25.7251 56.2739C24.9768 57.3459 24.6843 58.6723 24.9119 59.9613C25.1395 61.2503 25.8685 62.3964 26.9387 63.1473C28.0089 63.8982 29.3324 64.1926 30.6183 63.9655L85.8431 54.2146C87.1289 53.9876 88.2717 53.2578 89.02 52.1858C89.7683 51.1137 90.0608 49.7873 89.8332 48.4983Z" fill="url(#paint0_linear_54_8490)"/>
<path d="M67.9854 76.0714L33.8214 82.1037C32.5356 82.3307 31.3928 83.0605 30.6445 84.1325C29.8962 85.2045 29.6037 86.5309 29.8313 87.82C30.0589 89.109 30.788 90.255 31.8581 91.0059C32.9283 91.7569 34.2519 92.0512 35.5377 91.8242L69.7017 85.7919C70.9876 85.5649 72.1303 84.8351 72.8786 83.7631C73.6269 82.691 73.9194 81.3646 73.6918 80.0756C73.4642 78.7866 72.7351 77.6406 71.665 76.8896C70.5948 76.1387 69.2712 75.8444 67.9854 76.0714Z" fill="url(#paint1_linear_54_8490)"/>
<path d="M51.4381 32.0771L59.9516 30.5739C61.2375 30.3468 62.3802 29.617 63.1285 28.545C63.8768 27.473 64.1693 26.1466 63.9417 24.8576C63.7141 23.5686 62.9851 22.4225 61.9149 21.6716C60.8447 20.9207 59.5212 20.6264 58.2353 20.8534L49.7218 22.3566C49.0851 22.469 48.4769 22.7061 47.9318 23.0542C47.3867 23.4023 46.9154 23.8546 46.5449 24.3854C46.1744 24.9163 45.9119 25.5151 45.7723 26.1478C45.6328 26.7805 45.619 27.4346 45.7317 28.0729C45.8444 28.7111 46.0814 29.321 46.4291 29.8677C46.7769 30.4143 47.2286 30.887 47.7585 31.2589C48.2884 31.6307 48.8861 31.8943 49.5174 32.0347C50.1488 32.1751 50.8014 32.1895 51.4381 32.0771Z" fill="url(#paint2_linear_54_8490)"/>
<path d="M71.8075 32.8981C73.0934 32.671 74.2361 31.9412 74.9844 30.8692C75.7327 29.7972 76.0252 28.4708 75.7976 27.1818L73.5218 14.2924C73.2942 13.0034 72.5651 11.8574 71.495 11.1065C70.4248 10.3555 69.1012 10.0612 67.8154 10.2882C66.5295 10.5153 65.3868 11.2451 64.6385 12.3171C63.8902 13.3891 63.5977 14.7155 63.8253 16.0045L66.1011 28.8939C66.3287 30.1829 67.0578 31.3289 68.128 32.0799C69.1981 32.8308 70.5217 33.1251 71.8075 32.8981Z" fill="url(#paint3_linear_54_8490)"/>
<path d="M37.9342 38.8785C39.22 38.6515 40.3628 37.9217 41.111 36.8497C41.8593 35.7777 42.1519 34.4513 41.9243 33.1623L39.6484 20.2729C39.4208 18.9839 38.6917 17.8379 37.6216 17.0869C36.5514 16.336 35.2278 16.0417 33.942 16.2687C32.6562 16.4957 31.5134 17.2255 30.7651 18.2976C30.0168 19.3696 29.7243 20.696 29.9519 21.985L32.2278 34.8743C32.4554 36.1634 33.1844 37.3094 34.2546 38.0603C35.3247 38.8113 36.6483 39.1056 37.9342 38.8785Z" fill="url(#paint4_linear_54_8490)"/>
<path d="M72.9065 103.944L38.7425 109.976C37.4567 110.203 36.3139 110.933 35.5656 112.005C34.8173 113.077 34.5248 114.403 34.7524 115.692C34.98 116.981 35.7091 118.127 36.7792 118.878C37.8494 119.629 39.173 119.924 40.4588 119.696L74.6228 113.664C75.9087 113.437 77.0514 112.707 77.7997 111.635C78.548 110.563 78.8405 109.237 78.6129 107.948C78.3853 106.659 77.6563 105.513 76.5861 104.762C75.5159 104.011 74.1924 103.717 72.9065 103.944Z" fill="url(#paint5_linear_54_8490)"/>
<path d="M127.083 71.1901L113.643 73.5631L106.229 31.5706C105.352 26.6447 102.563 22.2667 98.4721 19.3963C94.3815 16.526 89.3237 15.3976 84.4076 16.2585L79.8825 17.0575C79.2458 17.1699 78.6376 17.407 78.0925 17.7551C77.5474 18.1032 77.0762 18.5556 76.7056 19.0864C76.3351 19.6172 76.0726 20.216 75.9331 20.8487C75.7935 21.4814 75.7797 22.1355 75.8924 22.7738C76.0051 23.4121 76.2421 24.0219 76.5899 24.5686C76.9376 25.1152 77.3894 25.588 77.9193 25.9598C78.4492 26.3316 79.0468 26.5952 79.6782 26.7356C80.3095 26.876 80.9622 26.8904 81.5988 26.778L86.1239 25.979C88.4688 25.5685 90.8812 26.1068 92.8323 27.4759C94.7834 28.845 96.114 30.9332 96.5324 33.2827L103.947 75.2752L89.0789 77.9004C86.154 78.4203 83.5553 80.0821 81.8528 82.5211C80.1503 84.9602 79.4831 87.9773 79.9975 90.9106L84.1807 114.603C84.702 117.535 86.3621 120.141 88.7969 121.849C91.2317 123.558 94.2424 124.229 97.1685 123.716L110.595 121.346C110.01 122.722 109.091 123.93 107.923 124.86C106.755 125.791 105.374 126.415 103.904 126.677L39.9069 137.976C37.5609 138.384 35.1487 137.841 33.2002 136.467C31.2516 135.093 29.926 133.001 29.5144 130.65L14.8684 47.7019C14.6601 46.5368 14.6828 45.3421 14.9353 44.1862C15.1878 43.0302 15.6651 41.9357 16.34 40.9651C17.0148 39.9945 17.874 39.1669 18.8684 38.5295C19.8628 37.8922 20.9729 37.4576 22.1353 37.2506L26.9642 36.398C28.25 36.1709 29.3928 35.4411 30.1411 34.3691C30.8893 33.2971 31.1819 31.9707 30.9543 30.6817C30.7267 29.3927 29.9976 28.2467 28.9274 27.4957C27.8573 26.7448 26.5337 26.4505 25.2478 26.6775L20.419 27.5301C15.5014 28.4055 11.1333 31.2021 8.27434 35.3054C5.41541 39.4088 4.29956 44.4833 5.17193 49.414L19.8179 132.362C20.6929 137.288 23.4809 141.666 27.5704 144.537C31.66 147.407 36.7172 148.536 41.6327 147.675L105.63 136.375C109.703 135.65 113.424 133.602 116.219 130.547C119.015 127.492 120.731 123.6 121.103 119.47L135.182 116.984C138.107 116.464 140.705 114.802 142.408 112.363C144.11 109.924 144.778 106.907 144.263 103.974L140.083 80.3014C139.562 77.367 137.9 74.7592 135.462 73.0508C133.024 71.3424 130.01 70.6732 127.083 71.1901ZM134.557 105.708C134.62 106.064 134.539 106.43 134.333 106.726C134.126 107.021 133.811 107.223 133.456 107.285L95.4392 113.998C95.0844 114.061 94.7191 113.979 94.4237 113.772C94.1283 113.565 93.9271 113.249 93.8643 112.893L89.681 89.2008C89.6182 88.845 89.699 88.479 89.9055 88.1831C90.112 87.8872 90.4274 87.6858 90.7823 87.6231L128.799 80.9106C129.154 80.8479 129.519 80.9292 129.815 81.1364C130.11 81.3437 130.311 81.66 130.374 82.0158L134.557 105.708Z" fill="url(#paint6_linear_54_8490)"/>
<path d="M122.636 84.6994L98.4397 88.9716C97.1539 89.1986 96.0111 89.9284 95.2628 91.0004C94.5145 92.0725 94.222 93.3989 94.4496 94.6879C94.6772 95.9769 95.4063 97.1229 96.4764 97.8739C97.5466 98.6248 98.8702 98.9191 100.156 98.6921L124.352 94.4198C125.638 94.1928 126.781 93.463 127.529 92.391C128.277 91.319 128.57 89.9926 128.342 88.7036C128.115 87.4145 127.385 86.2685 126.315 85.5176C125.245 84.7667 123.922 84.4723 122.636 84.6994Z" fill="url(#paint7_linear_54_8490)"/>
<path d="M124.814 97.0375L100.618 101.31C99.3324 101.537 98.1897 102.267 97.4414 103.339C96.6931 104.411 96.4006 105.737 96.6282 107.026C96.8558 108.315 97.5848 109.461 98.655 110.212C99.7252 110.963 101.049 111.257 102.335 111.03L126.531 106.758C127.816 106.531 128.959 105.801 129.707 104.729C130.456 103.657 130.748 102.331 130.521 101.042C130.293 99.7527 129.564 98.6067 128.494 97.8557C127.424 97.1048 126.1 96.8105 124.814 97.0375Z" fill="url(#paint8_linear_54_8490)"/>
</g>
<defs>
<linearGradient id="paint0_linear_54_8490" x1="33.0056" y1="51.9916" x2="38.2581" y2="70.5246" gradientUnits="userSpaceOnUse">
<stop stop-color="#5BCAA2"/>
<stop offset="0.930551" stop-color="#A4DBC7"/>
</linearGradient>
<linearGradient id="paint1_linear_54_8490" x1="34.9361" y1="80.378" x2="41.0362" y2="98.5267" gradientUnits="userSpaceOnUse">
<stop stop-color="#5BCAA2"/>
<stop offset="0.930551" stop-color="#A4DBC7"/>
</linearGradient>
<linearGradient id="paint2_linear_54_8490" x1="47.1961" y1="21.2737" x2="56.2839" y2="37.0444" gradientUnits="userSpaceOnUse">
<stop stop-color="#5BCAA2"/>
<stop offset="0.930551" stop-color="#A4DBC7"/>
</linearGradient>
<linearGradient id="paint3_linear_54_8490" x1="63.7344" y1="7.45276" x2="85.9813" y2="16.5502" gradientUnits="userSpaceOnUse">
<stop stop-color="#5BCAA2"/>
<stop offset="0.930551" stop-color="#A4DBC7"/>
</linearGradient>
<linearGradient id="paint4_linear_54_8490" x1="29.861" y1="13.4332" x2="52.108" y2="22.5306" gradientUnits="userSpaceOnUse">
<stop stop-color="#5BCAA2"/>
<stop offset="0.930551" stop-color="#A4DBC7"/>
</linearGradient>
<linearGradient id="paint5_linear_54_8490" x1="39.8572" y1="108.25" x2="45.9573" y2="126.399" gradientUnits="userSpaceOnUse">
<stop stop-color="#5BCAA2"/>
<stop offset="0.930551" stop-color="#A4DBC7"/>
</linearGradient>
<linearGradient id="paint6_linear_54_8490" x1="16.4674" y1="9.33149" x2="153.424" y2="155.933" gradientUnits="userSpaceOnUse">
<stop stop-color="#5BCAA2"/>
<stop offset="0.930551" stop-color="#A4DBC7"/>
</linearGradient>
<linearGradient id="paint7_linear_54_8490" x1="98.1397" y1="87.4957" x2="104.964" y2="105.233" gradientUnits="userSpaceOnUse">
<stop stop-color="#5BCAA2"/>
<stop offset="0.930551" stop-color="#A4DBC7"/>
</linearGradient>
<linearGradient id="paint8_linear_54_8490" x1="100.318" y1="99.8339" x2="107.142" y2="117.571" gradientUnits="userSpaceOnUse">
<stop stop-color="#5BCAA2"/>
<stop offset="0.930551" stop-color="#A4DBC7"/>
</linearGradient>
<clipPath id="clip0_54_8490">
<rect width="127.473" height="130.762" fill="white" transform="translate(0.366211 22.197) rotate(-10.0134)"/>
</clipPath>
</defs>
</svg>
