<svg width="252" height="252" viewBox="0 0 252 252" fill="none" xmlns="http://www.w3.org/2000/svg">
<ellipse cx="98.5423" cy="97.894" rx="98.5423" ry="97.894" transform="matrix(0.9572 -0.289427 -0.289427 -0.9572 59.9785 247.738)" fill="url(#paint0_radial_1_13056)"/>
<ellipse cx="128.439" cy="128.264" rx="36.2704" ry="36.8199" transform="rotate(-16.8237 128.439 128.264)" fill="url(#paint1_linear_1_13056)"/>
<path d="M177.012 112.042C174.357 103.212 169.446 95.2263 162.767 88.8779C156.088 82.5295 147.873 78.0385 138.935 75.8501C129.997 73.6617 120.648 73.852 111.813 76.4019C102.979 78.9519 94.9666 83.7731 88.5704 90.3875C82.1743 97.002 77.6165 105.18 75.3489 114.111C73.0813 123.042 73.1827 132.415 75.6429 141.302C78.1032 150.189 82.837 158.28 89.375 164.775C95.9129 171.269 104.028 175.94 112.916 178.326L119.54 200.232C120.906 204.725 123.993 208.494 128.124 210.715C132.255 212.935 137.092 213.425 141.577 212.077L156.005 207.714C160.515 206.347 164.295 203.241 166.518 199.078C168.74 194.915 169.222 190.036 167.858 185.512L162.074 166.383C169.426 159.668 174.73 151.002 177.373 141.387C180.016 131.771 179.891 121.598 177.012 112.042ZM146.428 176.562L150.659 190.554L136.779 194.751L132.535 180.716L146.428 176.562ZM136.641 160.65C130.079 162.618 123.08 162.593 116.527 160.578C109.973 158.562 104.159 154.647 99.8185 149.325C95.4779 144.004 92.8054 137.516 92.1382 130.679C91.471 123.842 92.8392 116.964 96.0698 110.912C99.3005 104.86 104.249 99.9064 110.291 96.6756C116.332 93.4448 123.196 92.082 130.016 92.7593C136.835 93.4366 143.305 96.1235 148.609 100.481C153.912 104.838 157.811 110.671 159.814 117.243C162.48 126.088 161.537 135.627 157.193 143.765C152.848 151.903 145.457 157.976 136.641 160.65Z" fill="url(#paint2_linear_1_13056)"/>
<path d="M106.188 67.765C108.426 67.0883 110.297 65.5297 111.39 63.4319C112.482 61.3341 112.707 58.869 112.015 56.5789L109.099 46.9368C108.289 44.8034 106.721 43.0518 104.709 42.035C102.696 41.0182 100.391 40.8116 98.2563 41.4571C96.1218 42.1025 94.3169 43.5519 93.2053 45.5132C92.0938 47.4745 91.7582 49.8019 92.2662 52.0265L95.2122 61.7694C95.9229 64.0268 97.4718 65.9203 99.5249 67.0418C101.578 68.1634 103.971 68.4231 106.188 67.765Z" fill="#FFC061"/>
<path d="M65.948 139.672C65.2708 137.432 63.6718 135.571 61.5028 134.499C59.3337 133.426 56.7724 133.23 54.3821 133.952L44.3182 136.995C42.1151 137.85 40.3024 139.448 39.2404 141.471C38.1784 143.494 37.9448 145.794 38.5859 147.915C39.227 150.035 40.696 151.82 42.701 152.916C44.706 154.012 47.1002 154.337 49.408 153.828L59.577 150.753C61.9309 150.014 63.9172 148.438 65.1086 146.366C66.3001 144.293 66.6015 141.889 65.948 139.672Z" fill="#FFC061"/>
<path d="M200.949 89.6968L191.083 92.6799C189.025 93.562 187.357 95.1393 186.397 97.112C185.437 99.0847 185.251 101.315 185.875 103.379C186.499 105.444 187.89 107.197 189.782 108.308C191.674 109.418 193.937 109.807 196.139 109.401L206.005 106.418C207.271 106.184 208.478 105.694 209.546 104.981C210.614 104.268 211.518 103.347 212.201 102.279C212.883 101.211 213.327 100.02 213.504 98.7841C213.681 97.5483 213.587 96.2957 213.229 95.1085C212.87 93.9214 212.254 92.8265 211.422 91.8959C210.589 90.9653 209.56 90.22 208.4 89.7089C207.24 89.1978 205.977 88.9325 204.693 88.9304C203.408 88.9283 202.133 89.1895 200.949 89.6968Z" fill="#FFC061"/>
<path d="M156.936 70.7917C158.105 70.4403 159.193 69.8617 160.138 69.0892C161.082 68.3167 161.864 67.3656 162.438 66.2908L167.413 57.0366C168.276 54.9077 168.321 52.5373 167.539 50.3803C166.757 48.2232 165.204 46.4313 163.178 45.3481C161.151 44.265 158.794 43.967 156.558 44.5112C154.322 45.0554 152.365 46.4035 151.062 48.297L146.076 57.5706C145.237 59.1875 144.89 61.0134 145.079 62.8228C145.268 64.6322 145.985 66.3459 147.14 67.7521C148.295 69.1584 149.838 70.1956 151.579 70.7358C153.32 71.276 155.183 71.2954 156.936 70.7917Z" fill="#FFC061"/>
<path d="M57.5324 102.316C59.6006 103.083 61.9092 103.084 64.0187 102.319C66.1281 101.553 67.8909 100.074 68.9713 98.1639C70.0517 96.2537 70.3743 94.0455 69.8775 91.9599C69.3807 89.8743 68.0993 88.0571 66.2774 86.8543L57.2731 82.294C55.1975 81.5012 52.8706 81.4846 50.7419 82.2475C48.6132 83.0104 46.8338 84.4985 45.7475 86.4245C44.6612 88.3505 44.3451 90.5775 44.8602 92.6754C45.3753 94.7733 46.6851 96.5932 48.5365 97.7834L57.5324 102.316Z" fill="#FFC061"/>
<path d="M195.805 151.76C193.809 150.955 191.588 150.916 189.566 151.651C187.545 152.386 185.867 153.843 184.854 155.743C183.841 157.643 183.564 159.852 184.076 161.946C184.588 164.04 185.854 165.872 187.63 167.09L196.304 171.704C198.3 172.509 200.522 172.548 202.543 171.813C204.564 171.078 206.242 169.621 207.255 167.721C208.269 165.821 208.546 163.612 208.033 161.518C207.521 159.424 206.256 157.592 204.48 156.374L195.805 151.76Z" fill="#FFC061"/>
<path d="M78.2502 181.752L73.5509 191.016C72.8374 192.093 72.3553 193.319 72.1362 194.615C71.9171 195.91 71.9659 197.246 72.2795 198.533C72.5931 199.821 73.1643 201.031 73.9557 202.086C74.7472 203.14 75.7409 204.015 76.8718 204.652C78.0027 205.289 79.2452 205.674 80.5179 205.783C81.7905 205.891 83.0646 205.72 84.2565 205.28C85.4483 204.841 86.5311 204.143 87.4338 203.233C88.3366 202.323 89.0388 201.22 89.4945 199.998L94.2128 190.745C95.0352 188.61 95.0573 186.216 94.2748 184.026C93.4922 181.836 91.9606 180.005 89.9758 178.887C87.991 177.768 85.6939 177.442 83.5283 177.972C81.3627 178.501 79.4822 179.848 78.2502 181.752Z" fill="#FFC061"/>
<defs>
<radialGradient id="paint0_radial_1_13056" cx="0" cy="0" r="1" gradientUnits="userSpaceOnUse" gradientTransform="translate(98.5423 97.894) rotate(90) scale(97.894 98.5423)">
<stop stop-color="#FFECD0"/>
<stop offset="1" stop-color="#FAAA52" stop-opacity="0"/>
</radialGradient>
<linearGradient id="paint1_linear_1_13056" x1="128.439" y1="91.4441" x2="128.439" y2="165.084" gradientUnits="userSpaceOnUse">
<stop stop-color="white" stop-opacity="0.34"/>
<stop offset="1" stop-color="#FFF6E8"/>
</linearGradient>
<linearGradient id="paint2_linear_1_13056" x1="111.177" y1="76.5901" x2="161.31" y2="207.658" gradientUnits="userSpaceOnUse">
<stop stop-color="#FFC061"/>
<stop offset="1" stop-color="#FFBE4E"/>
</linearGradient>
</defs>
</svg>
