<svg width="174" height="167" viewBox="0 0 174 167" fill="none" xmlns="http://www.w3.org/2000/svg">
<g clip-path="url(#clip0_54_8526)">
<path d="M36.516 147.42L15.7499 81.8918C15.4895 81.0701 15.357 80.2133 15.357 79.3513L15.357 72.3045C15.357 68.5997 17.7813 65.3316 21.3258 64.2583L120.521 34.2194C124.944 32.8801 129.617 35.3641 130.983 39.7799L153.618 112.936C155.006 117.424 152.449 122.179 147.94 123.493L46.8773 152.951C42.4953 154.228 37.8953 151.773 36.516 147.42Z" fill="white"/>
<path d="M135.103 14.9332L96.8403 26.2595C94.2829 21.0066 89.9451 16.831 84.5986 14.4756C79.252 12.1201 73.2432 11.7375 67.6411 13.3959C62.0389 15.0542 57.2066 18.6459 54.0037 23.5321C50.8007 28.4183 49.4348 34.2822 50.1489 40.0809L12.9794 51.0836C12.0777 51.3442 11.2363 51.7805 10.5037 52.3673C9.77107 52.954 9.16159 53.6798 8.71027 54.5028C8.25894 55.3258 7.97467 56.2299 7.87379 57.1631C7.7729 58.0964 7.85739 59.0403 8.12239 59.9408L17.918 93.0325C18.2602 94.1833 18.8305 95.2534 19.5948 96.1792C20.3591 97.105 21.3018 97.8676 22.3669 98.4216C23.3883 98.9397 24.4469 99.423 25.5067 99.8702L37.3055 139.729C38.2625 142.951 40.459 145.662 43.4128 147.267C46.3667 148.871 49.8365 149.238 53.0606 148.287L154.315 118.314C157.537 117.357 160.248 115.161 161.852 112.207C163.457 109.253 163.824 105.783 162.873 102.559L150.388 60.3829C151.062 59.4462 151.601 58.6564 152.001 58.0387C152.705 56.9624 153.166 55.7455 153.352 54.4728C153.538 53.2 153.444 51.902 153.077 50.6692L143.922 19.7421C143.385 17.9383 142.156 16.4203 140.504 15.5194C138.852 14.6184 136.91 14.4077 135.103 14.9332ZM71.477 26.455C73.6037 25.8335 75.868 25.8645 77.9768 26.5439C80.0857 27.2233 81.9422 28.5198 83.3062 30.2658L63.5845 36.1037C63.7821 33.8898 64.6401 31.7864 66.0474 30.0659C67.4546 28.3455 69.3463 27.0875 71.477 26.455ZM23.0026 62.2896L132.718 29.8122L139.394 52.3653C131.212 63.3031 120.699 72.2839 108.617 78.657L107.999 76.5689C107.203 73.8887 105.375 71.634 102.918 70.2993C100.461 68.9647 97.5753 68.6593 94.8934 69.45L75.7184 75.1261C73.0354 75.9203 70.7775 77.7471 69.4406 80.2051C68.1037 82.6631 67.7972 85.5512 68.5885 88.235L69.2066 90.3231C58.8822 91.5957 45.4199 92.1089 34.4749 88.7141C33.7046 88.2615 32.8532 87.9642 31.9686 87.8389C31.4452 87.6371 30.8999 87.4419 30.3809 87.215L23.0026 62.2896ZM95.821 83.3485L99.7561 96.642L86.4298 100.587L82.4979 87.3042L95.821 83.3485ZM149.555 105.491L50.0725 134.939L40.9111 103.99C51.7712 105.531 63.2388 104.907 73.1158 103.529L74.2646 107.41C74.656 108.743 75.3061 109.985 76.178 111.066C77.0498 112.147 78.1261 113.046 79.3455 113.711C80.5649 114.376 81.9034 114.794 83.2844 114.941C84.6655 115.089 86.062 114.962 87.3942 114.569L106.569 108.893C109.251 108.096 111.507 106.267 112.842 103.808C114.176 101.348 114.479 98.4597 113.685 95.7768L112.546 91.9286C122.575 86.9114 131.77 80.3755 139.805 72.552L149.555 105.491Z" fill="url(#paint0_linear_54_8526)"/>
</g>
<defs>
<linearGradient id="paint0_linear_54_8526" x1="164.602" y1="77.9618" x2="4.9346" y2="87.5873" gradientUnits="userSpaceOnUse">
<stop offset="0.0810219" stop-color="#F3B795"/>
<stop offset="1" stop-color="#FF9B9B"/>
</linearGradient>
<clipPath id="clip0_54_8526">
<rect width="160.579" height="152.284" fill="white" transform="matrix(0.995711 -0.0925157 0.0903496 0.99591 0.173401 15.0977)"/>
</clipPath>
</defs>
</svg>
