<svg width="48" height="45" viewBox="0 0 48 45" fill="none" xmlns="http://www.w3.org/2000/svg">
<path d="M35.8934 18.2717C35.5491 18.7815 26.6625 16.6283 22.2623 15.4881C20.9453 14.1956 23.0659 13.6256 23.5531 13.5766L23.5544 13.5765C23.8987 13.0667 33.659 15.7257 35.7157 16.5082C36.2644 17.0467 36.3237 17.6346 35.8934 18.2717Z" fill="#E597E5"/>
<path d="M33.651 25.7781C33.2132 26.3391 23.2806 23.0148 18.3691 21.2825C16.9842 19.6577 19.4512 19.1906 20.0107 19.1786L20.0122 19.1785C20.45 18.6175 31.3329 22.6108 33.6063 23.7107C34.1833 24.3877 34.1982 25.0768 33.651 25.7781Z" fill="#E597E5"/>
<path d="M32.8762 34.0005C32.094 34.0005 28.3547 38.7118 26.2879 41.1881C26.125 41.3834 26.1366 41.6688 26.314 41.851C26.4071 41.9466 26.5348 42.0005 26.6682 42.0005H27.4457C27.7032 42.0005 27.9589 41.9579 28.2025 41.8745L31.9596 40.5887C33.3346 40.1181 37.0012 38.4307 37.0012 37.7652C37.0012 37.2946 33.7929 34.0005 32.8762 34.0005Z" fill="#E597E5"/>
<path fill-rule="evenodd" clip-rule="evenodd" d="M21.8545 0.446298C20.8862 0.863373 21.0619 2.73305 22.167 3.88967C23.0981 4.86187 27.7475 6.20843 31.2862 6.57629C40.9934 7.53734 45.5451 11.2986 43.7094 16.7809C41.0514 24.8299 39.5455 30.6051 39.4044 33.5114C39.228 36.8754 39.2155 36.6215 38.3084 35.5474C37.4277 34.5153 35.3652 32.3445 34.1914 31.1716C33.218 30.2253 31.4923 28.7791 30.8184 29.9467C29.712 31.8727 27.105 34.6281 24.9441 36.4132C20.0399 40.4555 12.563 39.8766 6.62866 37.3669C4.12234 36.3103 4.26173 35.4111 4.82095 33.4995C6.79704 26.6521 11.6315 8.28989 13.3762 4.57846C14.2525 2.70577 14.8134 2.47946 16.4631 2.40217C19.3525 2.29439 17.802 0.566784 14.5197 0.187661C12.2231 -0.0667276 10.7602 0.448898 9.29001 3.14954C7.02346 7.38326 5.22411 15.6345 0.438267 32.2516C-0.69617 36.1427 1.31929 38.0516 4.60524 39.1844C6.54933 39.8576 9.55581 40.6378 14.6231 41.9035C20.9269 43.4607 24.0627 44.3072 26.2643 44.5033C28.7486 44.7302 30.0135 44.1321 33.3045 42.936C43.7119 39.0791 43.2403 39.5416 45.1314 31.6704C49.4577 13.6186 48.0045 8.40082 37.7438 5.48106C34.7533 4.63297 31.9138 3.60538 30.8868 3.04072C28.1857 1.57972 22.8229 0.0292233 21.8545 0.446298ZM25.6953 11.5323C23.14 11.1452 21.8493 12.7769 23.8427 13.856C25.4824 14.7443 34.251 16.9181 37.2425 17.3004C39.0766 17.5175 38.6514 16.0909 37.3529 15.1397C35.4395 13.7209 31.1575 12.3534 25.6953 11.5323ZM19.7351 17.4408C13.7635 16.3204 14.9329 18.2808 17.4232 19.4054C22.4725 21.6707 36.4883 25.1168 36.8084 23.7583C37.2486 21.8904 30.7088 19.489 19.7351 17.4408ZM17.0883 28.8263C19.543 29.333 24.5164 30.0748 25.4734 30.0135C27.1311 29.9022 25.3857 27.7702 22.7947 26.7654C19.3083 25.4061 17.8289 24.9141 16.9543 24.7797C12.3645 23.949 13.4923 28.0864 17.0883 28.8263ZM38.3456 37.8505C37.8615 38.059 32.9832 41.0678 27.7792 41.9207C25.8171 42.247 24.9137 41.9266 26.4337 40.7075C27.7532 39.2618 32.6042 32.9844 33.3941 33.1705C33.8326 33.3097 38.3456 37.8505 38.3456 37.8505Z" fill="black"/>
</svg>
