<svg width="98" height="18" viewBox="0 0 98 18" fill="none" xmlns="http://www.w3.org/2000/svg">
<path d="M9 12.9525L13.635 15.75L12.405 10.4775L16.5 6.93L11.1075 6.4725L9 1.5L6.8925 6.4725L1.5 6.93L5.595 10.4775L4.365 15.75L9 12.9525Z" fill="#FBB102"/>
<path d="M29 12.9525L33.635 15.75L32.405 10.4775L36.5 6.93L31.1075 6.4725L29 1.5L26.8925 6.4725L21.5 6.93L25.595 10.4775L24.365 15.75L29 12.9525Z" fill="#FBB102"/>
<path d="M49 12.9525L53.635 15.75L52.405 10.4775L56.5 6.93L51.1075 6.4725L49 1.5L46.8925 6.4725L41.5 6.93L45.595 10.4775L44.365 15.75L49 12.9525Z" fill="#FBB102"/>
<path d="M69 12.9525L73.635 15.75L72.405 10.4775L76.5 6.93L71.1075 6.4725L69 1.5L66.8925 6.4725L61.5 6.93L65.595 10.4775L64.365 15.75L69 12.9525Z" fill="#FBB102"/>
<path d="M89 12.9525L93.635 15.75L92.405 10.4775L96.5 6.93L91.1075 6.4725L89 1.5L86.8925 6.4725L81.5 6.93L85.595 10.4775L84.365 15.75L89 12.9525Z" fill="#FBB102"/>
</svg>
